<?xml version="1.0" encoding="UTF-8" standalone="no"?>
<!-- Created with Inkscape (http://www.inkscape.org/) -->
<svg
   xmlns:dc="http://purl.org/dc/elements/1.1/"
   xmlns:cc="http://creativecommons.org/ns#"
   xmlns:rdf="http://www.w3.org/1999/02/22-rdf-syntax-ns#"
   xmlns:svg="http://www.w3.org/2000/svg"
   xmlns="http://www.w3.org/2000/svg"
   xmlns:sodipodi="http://sodipodi.sourceforge.net/DTD/sodipodi-0.dtd"
   xmlns:inkscape="http://www.inkscape.org/namespaces/inkscape"
   id="svg2514"
   sodipodi:version="0.32"
   inkscape:version="0.46"
   width="1920"
   height="1080"
   version="1.0"
   sodipodi:docname="aen2.svg"
   inkscape:output_extension="org.inkscape.output.svg.inkscape">
  <metadata
     id="metadata2519">
    <rdf:RDF>
      <cc:Work
         rdf:about="">
        <dc:format>image/svg+xml</dc:format>
        <dc:type
           rdf:resource="http://purl.org/dc/dcmitype/StillImage" />
      </cc:Work>
    </rdf:RDF>
  </metadata>
  <defs
     id="defs2517">
    <inkscape:perspective
       sodipodi:type="inkscape:persp3d"
       inkscape:vp_x="0 : 526.18109 : 1"
       inkscape:vp_y="0 : 1000 : 0"
       inkscape:vp_z="744.09448 : 526.18109 : 1"
       inkscape:persp3d-origin="372.04724 : 350.78739 : 1"
       id="perspective2521" />
  </defs>
  <sodipodi:namedview
     inkscape:window-height="719"
     inkscape:window-width="1024"
     inkscape:pageshadow="2"
     inkscape:pageopacity="0.0"
     guidetolerance="10.0"
     gridtolerance="10.0"
     objecttolerance="10.0"
     borderopacity="1.0"
     bordercolor="#666666"
     pagecolor="#ffffff"
     id="base"
     showgrid="false"
     inkscape:zoom="0.90509668"
     inkscape:cx="466.03309"
     inkscape:cy="354.37649"
     inkscape:window-x="661"
     inkscape:window-y="131"
     inkscape:current-layer="svg2514" />
  <path
     style="fill:#000000;fill-opacity:1;fill-rule:evenodd"
     d="M 1006.8824,947.92115 C 1002.7574,947.48335 991.73235,946.62975 982.38235,946.02425 C 956.80075,944.36765 935.93915,942.12855 930.69445,940.47665 C 927.79185,939.56235 921.88902,938.99215 915.19445,938.97925 C 908.82789,938.96695 901.70979,938.30925 897.88235,937.37955 C 889.64084,935.37775 872.2788,934.30345 828.88235,933.10985 C 807.25294,932.51495 790.65175,931.57865 784.38235,930.59995 C 778.88235,929.74135 770.10735,929.00665 764.88235,928.96725 C 759.65735,928.92775 746.83235,928.08185 736.38235,927.08735 C 724.78179,925.98335 716.48075,925.61425 715.06725,926.13965 C 713.79395,926.61285 685.32981,927.00005 651.81363,927.00005 C 592.78562,927.00005 590.75811,927.06275 587.14353,929.00005 C 582.29364,931.59945 574.51894,931.60175 563.6957,929.00705 C 559.12336,927.91095 552.79485,927.01095 549.63235,927.00705 C 544.5003,927.00085 543.88235,927.22035 543.88235,929.04975 C 543.88235,932.31055 541.25957,936.50715 538.41029,937.80535 C 534.36322,939.64935 521.24964,939.22315 510.29165,936.89165 C 500.78414,934.86865 497.90899,934.78865 439.38235,934.91855 C 384.59455,935.04015 376.4474,934.84885 359.38235,933.03975 C 348.93235,931.93205 337.45735,931.01455 333.88235,931.00105 C 330.30735,930.98755 323.78235,930.08705 319.38235,929.00005 C 314.24609,927.73115 307.80268,927.00375 301.38235,926.96795 C 290.50792,926.90735 285.80794,925.70615 280.44704,921.61715 C 278.31167,919.98845 275.7405,919.00005 273.63905,919.00005 C 271.78185,919.00005 267.11661,917.45035 263.27185,915.55625 C 258.36404,913.13845 253.90027,911.81385 248.28912,911.11025 C 243.89337,910.55915 238.96608,909.55335 237.3396,908.87525 C 235.71311,908.19715 229.43235,907.54895 223.38235,907.43475 C 217.33235,907.32055 209.45735,906.51975 205.88235,905.65535 C 202.30735,904.79085 193.75735,903.62685 186.88235,903.06865 C 180.00735,902.51055 171.90735,901.57175 168.88235,900.98265 C 165.85735,900.39355 154.60735,898.57625 143.88235,896.94425 C 133.15735,895.31235 119.65735,892.85725 113.88235,891.48845 C 108.10735,890.11975 97.284983,888.34805 89.832633,887.55135 C 82.380293,886.75465 75.072813,885.64275 73.593793,885.08045 C 72.114773,884.51815 67.866843,883.74685 64.153953,883.36645 C 55.263333,882.45555 51.882353,879.46165 51.882353,872.50005 C 51.882353,868.68965 52.412123,867.31635 54.805433,864.92305 C 57.561243,862.16725 58.204993,861.99815 66.055433,861.96825 C 71.760523,861.94645 74.989093,861.47735 76.309353,860.47855 C 77.369203,859.67675 78.044203,858.84045 77.809353,858.62015 C 77.040643,857.89905 68.406353,855.18895 64.606593,854.47605 C 62.474173,854.07605 59.143393,852.22795 56.790993,850.13945 C 53.362723,847.09585 52.604483,845.72675 52.159933,841.77705 C 51.666183,837.39025 51.879413,836.80295 55.155343,833.52705 C 59.297003,829.38535 64.190593,828.81655 69.264323,831.88695 C 71.583523,833.29035 75.072423,833.91125 82.882353,834.31015 C 88.657353,834.60515 94.294923,835.13235 95.410293,835.48185 C 97.068173,836.00115 97.676783,835.45735 98.745573,832.50175 C 100.66473,827.19435 105.11086,825.32625 112.79761,826.59755 C 118.58947,827.55545 118.67118,827.53665 117.28956,825.56405 C 114.3246,821.33095 116.29663,813.87135 121.02738,811.42505 C 122.54299,810.64125 125.83038,810.00005 128.33269,810.00005 C 133.55766,810.00005 133.83534,809.29215 130.88235,803.50005 C 128.51866,798.86375 128.41487,797.05465 130.25932,792.64025 C 132.18138,788.04005 137.76353,785.43915 142.73494,786.82725 C 146.02582,787.74615 157.95642,790.79075 177.38235,795.66895 C 181.23235,796.63575 187.85951,797.66825 192.10937,797.96345 L 199.83638,798.50005 L 200.47687,794.22355 C 201.04013,790.46285 200.80174,789.65465 198.49986,787.52135 C 196.20826,785.39755 195.88329,784.31135 195.8899,778.79775 C 195.89406,775.33395 196.36705,769.60575 196.941,766.06835 C 197.81426,760.68615 197.74467,759.50245 196.5145,758.81405 C 195.70598,758.36155 194.27202,755.96875 193.32792,753.49665 C 191.87225,749.68505 191.71914,747.06415 192.32043,736.25095 C 192.77938,727.99755 193.53261,722.71875 194.45591,721.28515 C 195.24045,720.06705 195.88235,718.57595 195.88235,717.97165 C 195.88235,717.36735 197.93943,712.06405 200.45364,706.18645 C 202.96785,700.30895 205.44542,693.47505 205.95935,691.00005 C 208.25442,679.94745 208.96018,674.61745 209.86553,661.50005 C 210.53601,651.78555 211.59546,644.95185 213.32651,639.17595 C 218.57986,621.64705 219.23555,611.40085 215.83351,600.00005 C 214.76672,596.42505 212.76479,585.625 211.38477,576 C 210.00476,566.375 207.94949,553.775 206.8175,548 C 205.68551,542.225 204.36173,532.1 203.87576,525.5 C 202.20445,502.80197 199.78592,492.13272 194.99427,486.31961 C 193.28272,484.2432 191.88235,481.9942 191.88235,481.32185 C 191.88235,480.64949 191.26832,479.73952 190.51783,479.29969 C 187.94509,477.79191 185.78389,471.90465 184.87378,463.92486 C 184.37287,459.53295 183.76697,455.61567 183.52733,455.21979 C 183.28769,454.8239 182.36556,448.425 181.47815,441 C 179.34823,423.17872 176.99219,406.683 175.69365,400.5 C 174.66738,395.61341 169.64432,384.89083 167.10904,382.17467 C 162.30872,377.03188 160.29177,364.109 163.39117,358.35376 C 164.38454,356.50919 165.52828,355 165.93283,355 C 166.33738,355 166.99264,354.2125 167.38897,353.25 C 168.52473,350.49175 170.84097,336.87786 170.86268,332.83305 C 170.88423,328.8157 175.10355,320.15343 182.5286,308.88292 C 187.63328,301.1345 197.12903,277.80307 201.86946,261.36166 C 208.11308,239.70669 213.63164,232.80553 225.73486,231.51711 C 237.50672,230.26396 237.73461,230.16633 244.19702,223.60733 C 247.59895,220.15455 252.27016,216.50469 254.57749,215.49653 C 259.49639,213.34727 259.47427,213.25523 251.64476,203.29235 C 246.06537,196.19272 244.11493,195.22755 246.40027,200.69713 C 247.24989,202.73056 247.7159,204.99137 247.43586,205.72116 C 246.6899,207.6651 242.67785,208.91851 240.63235,207.84665 C 239.3359,207.1673 238.88235,207.31839 238.88235,208.42963 C 238.88235,210.71541 235.28249,212.28452 232.9286,211.02475 C 231.0891,210.04028 230.96407,208.67864 230.79053,187.73957 C 230.55572,159.40809 230.65617,156.29113 231.87762,154.00883 C 233.49672,150.98353 233.03839,146.13006 230.85468,143.17645 C 229.73947,141.66804 228.57095,138.85592 228.25798,136.92731 C 227.77227,133.9342 228.21561,132.79034 231.28564,129.11575 C 234.42699,125.3558 234.88235,124.13547 234.88235,119.47681 C 234.88235,112.16954 236.22568,111.04363 245.20378,110.82595 C 257.20327,110.53501 258.30974,110.4257 260.38235,109.32644 C 265.86221,106.42006 279.6724,105.48943 286.88235,107.54067 C 287.71457,107.77744 290.75434,105.74876 293.71046,102.98371 C 296.64092,100.24267 299.39684,97.999997 299.83473,97.999997 C 300.27262,97.999997 302.40946,98.627507 304.58325,99.394467 C 306.75704,100.16143 309.69685,100.56696 311.11615,100.29564 C 313.30519,99.877177 314.2797,100.58912 317.53952,104.98831 C 319.65308,107.8406 323.61173,112.6382 326.33654,115.64966 C 331.59929,121.46607 331.25808,120.41725 333.77042,138.5 C 334.22891,141.8 335.08412,146.975 335.67087,150 C 336.25763,153.025 337.01601,159.1 337.35615,163.5 C 337.69629,167.9 338.50145,172.98245 339.14539,174.79433 C 341.44842,181.27447 335.52439,184.74846 332.01412,178.97628 L 330.09476,175.82015 L 329.36624,181.11713 C 328.96555,184.03047 328.54651,190.73649 328.43504,196.01939 C 328.32356,201.30229 327.90205,206.15911 327.49834,206.81233 C 326.39125,208.60364 322.12138,208.23695 320.95034,206.25 C 320.05079,204.72371 319.79073,204.69175 318.91596,206 C 318.36432,206.825 317.9044,208.625 317.89392,210 C 317.88345,211.375 317.00903,213.91998 315.95078,215.6555 C 314.89253,217.39103 314.29421,219.07853 314.62118,219.4055 C 314.94816,219.73248 319.20514,220 324.08114,220 C 335.02609,220 337.90942,221.1552 344.53071,228.19307 C 350.68178,234.73114 354.11919,241.19594 356.97037,251.58858 C 358.13331,255.82755 360.62529,262.89489 362.50809,267.29378 C 367.03746,277.87596 370.34525,288.925 375.35677,310.21224 C 377.81287,320.64494 381.63312,329.21559 387.96565,338.5 C 389.46619,340.7 390.96402,344.525 391.29418,347 C 392.27298,354.33753 389.15861,369.72374 386.06927,372.81308 C 385.1301,373.75225 382.44508,378.51497 380.10257,383.39691 C 376.00128,391.94422 375.82637,392.70354 375.38281,403.88658 C 374.56427,424.52355 371.96644,434.66768 365.87693,441.00564 C 361.90575,445.13884 360.51369,448.70831 353.28369,473.29664 C 350.63804,482.29415 345.0467,485.56699 341.03465,480.46649 C 339.82496,478.92861 338.78368,478.35064 338.38497,478.99576 C 338.02372,479.58028 337.33776,498.15786 336.86063,520.27927 C 336.0849,556.24493 335.7737,561.29345 333.91906,568 C 332.77833,572.125 331.19141,580.9 330.39257,587.5 C 329.59373,594.1 328.26907,601.65275 327.44888,604.28385 C 326.34123,607.83715 326.22302,609.76585 326.98932,611.78135 C 329.69117,618.88775 330.73546,626.25835 329.8293,631.82595 C 327.79064,644.35195 331.69391,669.16005 340.53807,699.88805 C 343.00948,708.47465 346.29478,721.37385 347.83876,728.55285 C 349.87183,738.00615 351.89632,744.21105 355.17994,751.05285 C 363.90248,769.22745 364.08343,780.94575 355.78708,790.37085 C 353.72831,792.70975 350.25908,795.42825 348.07768,796.41195 C 344.76482,797.90585 344.01209,798.80165 343.50794,801.85025 C 342.53609,807.72695 342.78149,811.51435 344.38235,815.34575 C 345.20735,817.32025 345.89511,819.96275 345.91071,821.21785 C 345.9317,822.90645 347.4266,824.41025 351.65857,827.00005 C 360.48773,832.40295 362.39349,833.03695 377.38235,835.55805 C 385.08235,836.85315 395.49368,838.64545 400.51865,839.54085 C 408.86904,841.02895 409.91852,841.03265 412.71899,839.58445 C 417.34122,837.19425 460.68874,837.26015 467.00662,839.66695 C 470.02761,840.81785 476.18121,841.53425 486.88235,841.98075 C 501.3883,842.58595 502.89541,842.83935 510.38235,845.93175 C 518.27724,849.19275 518.6517,849.24475 538.88235,849.89535 C 550.15735,850.25795 560.05735,850.97805 560.88235,851.49565 C 561.70735,852.01325 573.86382,852.73075 587.89673,853.09015 C 611.30111,853.68955 613.73948,853.91955 617.38192,855.87175 C 619.56587,857.04235 622.51112,858.00005 623.92693,858.00005 C 625.34273,858.00005 632.0994,860.02275 638.94174,862.49505 C 650.97091,866.84145 655.88235,870.00175 655.88235,873.39575 C 655.88235,874.10205 657.79485,875.24845 660.13235,875.94335 C 662.46985,876.63825 666.30396,877.87595 668.6526,878.69385 C 671.96276,879.84655 675.33527,880.02725 683.6526,879.49715 C 701.72304,878.34565 752.3093,878.49085 772.38235,879.75185 C 782.83235,880.40835 799.03235,881.39165 808.38235,881.93685 C 817.73235,882.48215 827.5558,883.21655 830.21224,883.56895 L 835.04212,884.20975 L 833.56706,881.35485 C 832.75578,879.78465 831.57662,876.58425 830.94671,874.24285 C 829.36825,868.37565 824.51067,863.88995 814.1446,858.72725 C 799.78182,851.57395 796.88235,849.43975 796.88235,846.02135 C 796.88235,844.39695 797.65431,841.44905 798.59782,839.47045 C 800.314,835.87165 804.30031,833.54085 822.88235,825.27125 C 825.35735,824.16975 830.69275,820.63095 834.73879,817.40725 C 841.78945,811.78965 842.34122,811.03395 848.01345,799.22715 C 851.26847,792.45175 854.5728,784.44675 855.35639,781.43835 C 856.30325,777.80315 856.99147,767.40035 857.40828,750.42315 C 857.86577,731.78915 858.42057,723.95615 859.4589,721.47105 C 860.46907,719.05335 860.88235,713.83565 860.88235,703.50005 C 860.88235,687.50315 860.35165,685.28145 854.73944,677.78295 C 842.71827,661.72155 835.58544,652.91145 833.85169,651.98355 C 832.75314,651.39565 830.38399,651.19045 828.58693,651.52765 C 826.01016,652.01105 824.90343,651.68015 823.35094,649.96225 C 822.26822,648.76405 819.23612,646.69545 816.61294,645.36525 L 811.84354,642.94665 L 811.95218,652.22335 C 812.12987,667.39635 811.35696,678.92535 810.0762,680.20615 C 809.41958,680.86275 808.88235,682.14935 808.88235,683.06515 C 808.88235,683.98095 807.94969,685.91595 806.80977,687.36515 C 805.20987,689.39905 803.85633,690.00005 800.87487,690.00005 C 798.75059,690.00005 795.77074,690.47215 794.25296,691.04915 C 788.24229,693.33445 774.93995,685.53595 774.84842,679.67325 C 774.82976,678.47795 773.94503,675.70005 772.88235,673.50005 C 771.81967,671.30005 770.93494,668.08725 770.91628,666.36045 C 770.89762,664.63365 769.0627,658.10865 766.83869,651.86045 C 761.82496,637.77465 760.93634,634.47165 760.90621,629.80905 C 760.89309,627.77895 760.45994,625.85695 759.94365,625.53785 C 759.42737,625.21885 757.59434,622.49225 755.87026,619.47885 C 753.75947,615.78955 752.09958,614.00005 750.78848,614.00005 C 749.67541,614.00005 745.7414,610.78745 741.6042,606.50005 C 735.99014,600.68205 733.7402,599.00005 731.57222,599.00005 C 729.86088,599.00005 725.59954,596.89305 720.57989,593.56512 C 712.73164,588.36181 708.76278,584.42836 705.88368,579 C 705.1544,577.625 703.32412,574.925 701.81638,573 C 698.80198,569.15137 694.13365,558.55356 692.95136,552.87506 C 692.53626,550.88134 691.16579,547.80243 689.90588,546.03304 C 688.19946,543.6366 687.39323,540.60742 686.74528,534.15798 C 685.23772,519.15237 684.14007,514.69789 681.40151,512.47203 C 678.60133,510.19609 676.3624,503.54171 675.35464,494.5 C 674.45424,486.42149 670.28807,470.23896 666.66576,460.75 C 664.3198,454.60455 663.28752,453 661.67985,453 C 660.56477,453 655.33633,451.82417 650.06111,450.38703 C 641.30266,448.00097 639.98838,447.8803 634.92607,448.99741 C 631.87702,449.67025 627.96543,450.80408 626.23363,451.51703 C 621.93061,453.28852 608.15178,466.55155 605.77562,471.20921 C 604.71197,473.29414 603.51335,475.00762 603.11203,475.01694 C 602.7107,475.02626 600.26417,477.02098 597.67529,479.44965 C 592.48612,484.31769 586.95973,487.35413 584.24168,486.83068 C 581.69321,486.33989 573.17064,471.72064 570.96251,464.05215 C 568.23718,454.58751 567.9154,452.0179 567.37933,435.43815 C 566.8413,418.79787 565.3466,400.13091 564.48306,399.26737 C 563.46447,398.24879 554.47089,398.64501 549.88235,399.91063 C 545.01272,401.25377 527.47396,400.54103 522.88235,398.81341 C 519.38982,397.49932 514.88235,392.98357 514.88235,390.79872 C 514.88235,389.14059 514.53556,389.1985 511.13235,391.42494 C 509.06985,392.77427 506.08233,394.19513 504.49341,394.58241 C 499.81492,395.72274 487.18794,405.38027 475.38235,416.84751 C 469.33235,422.72412 461.72601,429.55 458.47937,432.01613 C 455.23273,434.48226 450.95773,437.8833 448.97937,439.57399 C 439.81507,447.40575 418.95868,458 412.70497,458 C 405.9058,458 397.40194,450.48438 393.03768,440.61825 C 390.67307,435.27265 390.38781,430.85854 391.96469,424.01477 C 393.35344,417.98748 395.33756,416 399.96591,416 C 405.00744,416 406.88235,418.07505 406.88235,423.65476 C 406.88235,426.13631 407.21985,427.99715 407.63235,427.78995 C 417.05236,423.05844 418.57809,422.66748 427.96678,422.57936 L 437.55121,422.4894 L 444.96678,417.20213 C 449.04534,414.29414 454.40735,410.62333 456.88235,409.04478 C 459.35735,407.46623 462.79411,405.01039 464.5196,403.58735 C 466.24508,402.16431 467.96261,401 468.33632,401 C 471.05572,401 494.45895,379.00816 500.79374,370.5 C 502.84127,367.75 506.44705,361.98224 508.80659,357.68277 C 517.35579,342.1047 528.26522,332.37872 548.27035,322.5 C 555.62274,318.86932 558.51169,314.97828 562.96706,302.70548 C 566.73978,292.31308 566.56683,292.42404 585.20016,288.44197 C 601.8311,284.88782 607.57511,284.06493 620.38235,283.40173 C 627.77214,283.01907 631.90049,282.36737 632.96109,281.41606 C 633.8294,280.63723 635.32719,280 636.28951,280 C 637.25183,280 639.82074,278.20055 641.99819,276.00123 C 644.17564,273.80191 647.85286,271.03698 650.16977,269.85695 C 652.48669,268.67691 655.79819,266.63354 657.52867,265.31611 C 662.01538,261.90034 679.93434,243.46704 684.80736,237.25442 C 689.8257,230.85655 699.35955,225.47054 703.12921,226.90376 C 704.41365,227.3921 706.06365,228.51353 706.79589,229.39582 C 709.13244,232.2112 710.59228,231.17373 715.20819,223.4174 C 719.11159,216.85834 719.59064,215.46164 718.75707,213.07047 C 717.50983,209.49263 711.34245,203.44653 710.43606,204.91309 C 709.51634,206.40123 704.36203,206.2866 703.10317,204.75 C 701.71972,203.06133 700.51065,190.96884 701.34529,187.16871 C 701.87222,184.76962 702.81049,183.8528 705.69965,182.9139 C 710.09651,181.48504 711.37224,179.62749 710.99867,175.19822 C 710.70367,171.70056 713.09241,167 715.16486,167 C 715.84488,167 716.99024,166.05689 717.7101,164.90421 C 718.81306,163.13809 718.77225,162.53582 717.45065,161.07547 C 714.41786,157.72428 716.02522,152 719.99902,152 C 722.24417,152 722.73898,150.29677 721.7421,146 C 720.39097,140.17642 720.73485,135.44203 722.63235,133.74327 C 724.55119,132.0254 742.42762,129.80809 747.12264,130.7056 C 749.04929,131.0739 750.65499,130.52765 752.69736,128.80911 C 754.2751,127.48153 758.11217,125.78451 761.22417,125.03795 L 766.88235,123.68057 L 766.88235,119.31885 C 766.88235,113.19888 769.28403,112.18201 779.68765,113.89707 C 787.71693,115.22072 791.88235,117.10059 791.88235,119.40061 C 791.88235,121.51427 794.26584,122.97398 796.68439,122.34152 C 798.27882,121.92456 798.88235,121.00862 798.88235,119.00581 C 798.88235,112.79136 805.29374,112.27212 808.21471,118.25 C 810.43417,122.79222 812.97179,123.10714 818.28721,119.5 C 820.31339,118.125 822.82567,117 823.87006,117 C 826.92733,117 828.88077,120.87475 828.89766,126.97251 C 828.90608,130.01263 829.30264,133.11508 829.77889,133.86683 C 830.28541,134.66638 833.4509,135.52411 837.40588,135.93347 C 845.88374,136.81096 848.1981,139.04742 847.70541,145.88633 L 847.38235,150.37064 L 852.88235,152.03686 C 863.79077,155.34155 865.88235,156.60024 865.88235,159.86008 C 865.88235,161.85783 864.98703,163.58369 863.13235,165.16111 C 861.49234,166.55594 860.49593,168.30727 860.66374,169.5 C 860.8185,170.6 859.83281,174.7625 858.47331,178.75 C 857.11381,182.7375 856.31219,186.0001 856.69192,186.00023 C 859.85093,186.00127 901.54912,173.03769 908.38235,169.93015 C 919.71463,164.77659 925.10994,163.54 930.02515,164.96966 C 932.42165,165.6667 942.03235,166.6291 951.38235,167.10833 C 961.58805,167.63141 970.78035,168.64878 974.38235,169.65387 C 977.75265,170.59431 986.14455,171.58491 993.52955,171.91405 C 1009.7214,172.63569 1010.8824,173.31378 1010.8824,182.04923 C 1010.8824,188.3465 1011.5497,189.33324 1021.1552,197.2398 C 1026.0665,201.28247 1028.6385,202.48866 1035.742,204.0806 C 1038.2703,204.64719 1041.7811,206.21084 1043.5439,207.55538 C 1047.9463,210.91322 1056.1212,210.884 1064.3824,207.4809 C 1072.3951,204.18014 1075.226,204.26939 1077.8143,207.90437 C 1078.9518,209.50177 1079.8824,211.34904 1079.8824,212.00941 C 1079.8824,213.32716 1081.7827,213.15358 1095.8824,210.54794 C 1100.5574,209.684 1110.3909,208.29887 1117.7347,207.46989 C 1125.0784,206.6409 1132.9534,205.56151 1135.2347,205.07124 C 1137.5159,204.58097 1142.7574,203.86766 1146.8824,203.4861 C 1151.0074,203.10454 1158.8824,201.75158 1164.3824,200.47952 C 1175.983,197.79652 1191.1764,195.36864 1201.8824,194.48712 C 1209.4347,193.86527 1216.8385,192.54065 1222.3824,190.8194 C 1225.6977,189.79009 1245.0911,187.46823 1262.8824,185.97058 C 1291.5302,183.55903 1296.8112,182.91319 1303.3818,181.01772 C 1307.7632,179.75375 1316.1787,178.61284 1325.8818,177.96733 C 1334.4071,177.40016 1344.7574,176.50874 1348.8824,175.98639 C 1353.0074,175.46404 1363.8074,174.56307 1372.8824,173.98422 C 1381.9574,173.40537 1390.5356,172.47747 1391.945,171.92221 C 1393.3544,171.36694 1405.3888,170.73576 1418.6881,170.51958 C 1431.9874,170.30339 1443.3776,169.81201 1443.9995,169.42762 C 1444.9638,168.83164 1513.5678,166.86195 1542.8824,166.58859 L 1552.3824,166.5 L 1552.3824,169.96166 C 1552.3824,172.66016 1551.8313,173.69387 1549.8824,174.65055 C 1538.4863,180.24486 1539.4394,180.04889 1520.0266,180.7891 C 1509.7723,181.18009 1498.9074,181.47941 1495.8824,181.45426 C 1443.2298,181.01633 1409.9957,181.53221 1399.8824,182.94444 C 1395.7574,183.52046 1386.0824,184.47979 1378.3824,185.07628 C 1370.6824,185.67277 1360.3324,186.55618 1355.3824,187.03941 C 1340.3399,188.50791 1335.0526,189.0117 1317.8824,190.61256 C 1308.8074,191.45866 1298.0074,192.99056 1293.8824,194.01678 C 1289.7574,195.04301 1279.1824,196.35005 1270.3824,196.92133 C 1261.5824,197.49261 1251.2324,198.59968 1247.3824,199.38148 C 1231.3186,202.64346 1222.8207,204.04377 1213.0509,205.03872 C 1207.3686,205.6174 1200.6186,206.51757 1198.0509,207.03909 C 1192.8042,208.10476 1165.4747,213.29724 1153.6046,215.48367 C 1149.3268,216.27162 1145.3751,217.19551 1144.8229,217.53676 C 1143.8732,218.12373 1133.5368,219.80967 1116.9562,222.08203 C 1112.8718,222.6418 1109.0878,223.37303 1108.5475,223.707 C 1108.0071,224.04096 1102.7989,224.48404 1096.9737,224.69161 C 1084.8245,225.12454 1080.4456,226.61981 1079.4256,230.68387 C 1078.6758,233.67116 1075.4074,238.8204 1073.0362,240.75 C 1070.3952,242.89913 1066.7843,242.15065 1057.1258,237.45204 L 1047.7769,232.90407 L 1032.0796,236.04507 C 1023.4462,237.77262 1012.504,239.42826 1007.7636,239.72426 C 999.90595,240.21492 998.95655,240.07423 997.01355,238.13122 C 992.68605,233.80368 995.65575,227.63196 1002.6284,226.46248 C 1014.0727,224.54302 1022.3,222.91575 1022.7289,222.48684 C 1022.9967,222.21908 1021.1772,222 1018.6856,222 C 1016.194,222 1011.912,221.57456 1009.1702,221.05457 C 1005.9796,220.44949 1001.8805,220.46591 997.78365,221.10019 C 989.25435,222.4207 974.63185,222.96637 973.38235,222.01079 C 971.95485,220.91912 959.05055,218.82748 957.05485,219.36428 C 956.13495,219.61169 954.15735,220.08636 952.66025,220.41912 C 949.45705,221.13103 944.90015,227.28947 944.84415,230.98213 C 944.82325,232.36696 941.69465,238.45 937.89185,244.5 C 934.08905,250.55 928.62105,259.325 925.7408,264 C 922.02476,270.0315 916.7109,276.2938 907.44312,285.56353 C 900.2597,292.74847 892.62545,299.94232 890.47812,301.54985 C 886.59028,304.46038 880.88483,314.42986 880.88314,318.31574 C 880.88167,321.69093 878.9172,324 876.04717,324 C 874.52652,324 872.82699,323.54464 872.27045,322.9881 C 870.9056,321.62325 863.60981,317.93921 863.16084,318.38817 C 862.96398,318.58504 862.53517,322.54001 862.20793,327.177 L 861.61296,335.60789 L 870.23892,334.68322 C 877.73581,333.87958 879.2096,333.9844 881.4984,335.48408 C 884.02629,337.14042 884.11326,337.50033 883.66675,344.45789 C 883.37978,348.92951 882.56582,352.61382 881.54197,354.07558 C 880.62918,355.37877 879.88235,357.67983 879.88235,359.18905 C 879.88235,361.32956 877.95785,363.78774 871.13235,370.36554 C 866.31985,375.00339 859.68235,380.80913 856.38235,383.26719 C 848.92545,388.82158 832.79753,403.61537 825.94205,411.18942 L 820.7924,416.87884 L 823.83404,422.68942 C 825.50695,425.88524 828.33969,430.23604 830.12902,432.35786 C 833.37692,436.20927 833.38204,436.233 833.19854,446.56684 C 833.03388,455.83996 832.73199,457.40043 830.29981,461.55063 C 828.80661,464.09859 825.40182,467.8131 822.73362,469.8051 C 820.06542,471.7971 817.88235,474.03087 817.88235,474.76904 C 817.88235,476.48049 828.38692,494.49419 831.79914,498.63415 C 833.2199,500.35794 836.40735,505.45261 838.88235,509.95564 C 843.02767,517.49767 846.98109,523.83525 854.14323,534.41983 C 855.66171,536.66392 860.37544,545.18915 864.61818,553.36477 C 868.86092,561.54039 873.95458,570.09039 875.93743,572.36477 C 877.92027,574.63915 883.42635,581.76723 888.17316,588.20495 C 894.07778,596.21295 899.2008,601.87735 904.3931,606.13885 C 919.50489,618.54185 929.46155,632.74255 933.96915,648.32165 C 935.94395,655.14685 936.07095,656.58945 934.96625,659.64465 C 933.96025,662.42645 933.95225,663.75445 934.92695,666.10775 C 936.47765,669.85145 935.68755,679.31945 933.26145,686.06625 C 932.18185,689.06835 928.72315,694.31945 924.66848,699.11205 C 920.93611,703.52365 917.88235,708.07865 917.88235,709.23425 C 917.88235,712.74245 907.2066,736.50675 902.61888,743.21085 C 893.53205,756.48935 872.88235,794.28785 872.88235,797.64235 C 872.88235,798.25045 871.78345,800.71725 870.44034,803.12405 C 869.09724,805.53085 866.82128,812.45005 865.38266,818.50005 C 863.28284,827.33065 862.89589,830.82025 863.42058,836.19435 C 863.84211,840.51195 863.63888,844.20775 862.84815,846.60365 C 861.04695,852.06135 861.49406,859.57455 864.09146,867.49615 C 866.25218,874.08595 866.61616,874.56785 870.35762,875.79365 C 875.39555,877.44415 877.60235,879.44875 878.40512,883.10375 C 879.14242,886.46065 875.46396,886.12745 914.88235,886.40735 C 929.89555,886.51385 942.86735,887.11865 948.38235,887.96925 C 953.33235,888.73255 960.53235,889.23675 964.38235,889.08945 C 994.23055,887.94805 1095.0944,890.02505 1110.8824,892.10625 C 1121.5528,893.51285 1179.6873,893.82695 1189.2433,892.52965 C 1197.0198,891.47395 1210.8498,894.26035 1214.9476,897.70835 C 1216.5239,899.03475 1219.2916,900.54495 1221.098,901.06435 C 1224.5112,902.04585 1250.2562,902.50505 1251.704,901.61035 C 1252.1575,901.33005 1255.1976,900.67085 1258.4598,900.14555 C 1267.0476,898.76245 1284.1843,890.16555 1291.3706,883.63525 C 1300.1421,875.66435 1299.3802,875.43645 1277.8824,879.59965 C 1257.4622,883.55415 1238.1851,884.38165 1216.025,882.25495 C 1209.0227,881.58295 1207.3607,881.07395 1205.775,879.11565 C 1204.7341,877.83015 1203.8824,875.74335 1203.8824,874.47835 C 1203.8824,873.21325 1203.0138,869.38735 1201.9522,865.97635 C 1200.0438,859.84465 1200.0439,859.68845 1201.9653,852.17575 C 1204.3276,842.93915 1206.9955,837.25085 1211.4856,831.87645 C 1215.3401,827.26295 1215.8149,823.19315 1213.2793,816.50005 C 1210.1146,808.14615 1208.0009,801.15725 1205.5619,790.98195 C 1203.9898,784.42365 1200.7257,775.38815 1196.8917,766.98195 C 1193.5098,759.56685 1189.3945,749.45005 1187.7465,744.50005 C 1186.0986,739.55005 1183.7024,733.70005 1182.4217,731.50005 C 1179.6372,726.71685 1172.762,710.37635 1169.2286,700.14375 C 1167.6175,695.47835 1166.8493,691.45475 1167.1283,689.14375 C 1167.3703,687.13975 1167.1681,684.15005 1166.6789,682.50005 C 1163.8439,672.93695 1161.9864,653.88185 1163.6477,651.40435 C 1164.0518,650.80175 1165.7121,649.67675 1167.3373,648.90435 C 1169.8436,647.71315 1170.7853,646.05785 1173.5407,638.00005 C 1175.3274,632.77505 1176.8102,627.28365 1176.8358,625.79705 C 1176.9666,618.21145 1181.8214,615.52295 1197.9696,614.09325 C 1209.0801,613.10965 1214.5945,610.02935 1226.7659,598.00765 C 1237.0116,587.88794 1241.9542,584.44353 1249.8733,581.90433 C 1256.7941,579.68522 1262.0427,577.70213 1263.5376,576.74146 C 1265.05,575.76959 1273.8824,560.69095 1273.8824,559.08084 C 1273.8824,558.12291 1270.9553,557.97693 1261.1324,558.44497 C 1254.1199,558.7791 1239.0141,559.28326 1227.564,559.56533 C 1206.9051,560.07425 1206.727,560.06063 1204.3312,557.78909 C 1201.4017,555.01147 1201.2357,552.09188 1203.8204,548.80594 C 1204.8863,547.45086 1206.0666,545.11433 1206.4432,543.61366 C 1208.0242,537.31471 1213.3492,536.43809 1241.011,537.92303 C 1252.3567,538.53209 1262.3429,538.76052 1263.2025,538.43065 C 1264.0621,538.10079 1264.9043,536.85645 1265.0739,535.66545 C 1265.5786,532.12243 1270.7717,531.00579 1284.0495,531.5852 C 1290.4664,531.86521 1298.1164,532.47771 1301.0495,532.94631 C 1303.9826,533.4149 1306.5469,533.64166 1306.748,533.4502 C 1306.9491,533.25874 1306.6116,531.66197 1305.998,529.90182 C 1304.3738,525.24259 1304.6334,521.8959 1306.8824,518.5 C 1307.9752,516.85 1308.8722,514.91928 1308.8758,514.20951 C 1308.8794,513.49974 1309.8472,511.61401 1311.0265,510.01899 C 1313.9313,506.08997 1313.0541,498.83244 1309.1864,494.79542 C 1307.7134,493.25794 1306.1358,492 1305.6806,492 C 1303.9922,492 1297.7144,498.71267 1293.0739,505.47992 C 1288.7711,511.75479 1287.7874,512.60218 1283.335,513.869 C 1279.4468,514.97531 1276.3343,515.07277 1268.8525,514.32248 C 1259.6653,513.40116 1258.8564,513.11202 1246.3525,506.2804 C 1239.219,502.38288 1230.4574,497.38871 1226.8824,495.18225 C 1223.3074,492.9758 1218.4313,490.39285 1216.0467,489.44237 C 1211.7697,487.73764 1211.6342,487.74852 1206.0467,490.24493 C 1199.8923,492.99462 1189.9662,496.97637 1180.1604,500.62898 C 1176.7383,501.90369 1170.6633,504.59629 1166.6604,506.61253 C 1153.095,513.44537 1145.5628,515.09261 1117.3824,517.38943 C 1113.2804,517.72377 1104.1483,519.70496 1093.3824,522.59625 C 1079.445,526.33925 1073.8824,525.47985 1073.8824,519.58356 C 1073.8824,517.04826 1076.7179,514 1079.0763,514 C 1081.6433,514 1085.9284,509.97245 1089.6261,504.08424 C 1093.8033,497.43254 1101.2648,489.43085 1105.2397,487.34036 C 1108.8933,485.41886 1116.6575,486.22691 1126.6535,489.56898 C 1137.6333,493.24 1142.7209,492.95537 1165.8824,487.37423 C 1169.4574,486.51278 1176.5449,483.84347 1181.6324,481.44244 C 1190.7119,477.15737 1190.8824,477.01226 1190.8824,473.5684 C 1190.8824,470.79178 1190.2304,469.58426 1187.7571,467.77994 C 1186.0382,466.52597 1183.8153,463.61362 1182.8175,461.30804 C 1181.0473,457.21792 1169.2882,442 1167.8979,442 C 1167.5135,442 1166.655,440.1843 1165.9901,437.96511 C 1163.7632,430.53242 1151.7294,419.33777 1138.2506,412.15989 C 1135.2871,410.58174 1131.8824,403.2541 1131.8824,398.45411 C 1131.8824,396.59507 1130.9824,392.79072 1129.8824,390 C 1127.3846,383.66297 1127.3835,381.89816 1129.8748,377.01486 C 1131.4696,373.88885 1133.2159,372.45963 1138.6248,369.85368 C 1144.7939,366.88148 1146.6016,366.51967 1159.3824,365.69886 C 1167.0824,365.20435 1183.411,364.73231 1195.6682,364.64988 C 1213.4556,364.53025 1218.127,364.22041 1218.8108,363.11489 C 1219.653,361.7531 1218.9631,359.56099 1214.7788,350.30486 C 1213.7358,347.99754 1212.8708,345.74754 1212.8566,345.30486 C 1212.8424,344.86219 1211.1549,343.72834 1209.1066,342.7852 C 1207.0583,341.84206 1200.4913,338.15995 1194.5133,334.60274 C 1188.5353,331.04553 1179.9853,326.92937 1175.5133,325.45572 C 1171.0413,323.98207 1166.7969,322.30251 1166.0813,321.72335 C 1164.0421,320.07295 1164.9908,314.58023 1167.3824,314.19025 C 1168.4824,314.01089 1170.8004,313.2197 1172.5335,312.43206 C 1174.2667,311.64443 1177.4744,311 1179.6619,311 C 1183.3111,311 1183.996,310.53745 1187.9658,305.39195 C 1190.3454,302.30753 1193.1652,299.46103 1194.2319,299.0664 C 1195.2987,298.67177 1199.369,298.92171 1203.277,299.62184 C 1207.185,300.32196 1210.8921,300.91846 1211.515,300.94739 C 1212.138,300.97633 1213.8617,298.51873 1215.3454,295.48606 C 1216.8292,292.4534 1219.1632,289.1909 1220.5321,288.23606 C 1221.901,287.28123 1224.9534,284.88937 1227.3152,282.92082 C 1229.8202,280.83291 1235.7286,277.76613 1241.4959,275.56028 C 1253.6799,270.90017 1255.9792,269.89881 1257.8824,268.42362 C 1258.7074,267.78418 1262.8401,267.01422 1267.0661,266.71262 C 1274.2413,266.20054 1275.0355,266.34846 1279.0661,268.9477 C 1284.2881,272.31521 1288.8883,277.08468 1290.4721,280.77337 C 1291.4081,282.95343 1291.7771,283.17879 1292.3129,281.89761 C 1292.6999,280.97245 1291.9052,278.26799 1290.4327,275.49867 C 1287.1452,269.31559 1287.2122,266.48467 1290.8591,257.5 C 1291.3055,256.4 1292.4096,253.41761 1293.3126,250.87246 C 1295.0912,245.85908 1297.8592,242.74114 1300.7184,242.5305 C 1301.7121,242.45729 1304.2877,241.56101 1306.4419,240.53877 C 1308.5997,239.51486 1312.385,238.71586 1314.8706,238.75968 C 1325.1193,238.94035 1348.8569,240.84856 1355.3824,242.01634 C 1364.3938,243.62896 1406.6213,242.65452 1419.2447,240.54265 C 1431.5827,238.47852 1448.1853,229.56484 1457.3353,220.09226 C 1464.8677,212.29449 1470.3862,215.90309 1466.0302,225.7779 C 1463.9606,230.46962 1463.9599,230.51068 1465.9148,232.16029 C 1469.2674,234.98925 1468.4621,239.24357 1463.772,243.48081 C 1461.5112,245.52325 1458.2318,247.7917 1456.4844,248.52182 C 1454.737,249.25193 1450.9165,251.4582 1447.9944,253.42465 C 1444.0993,256.04581 1441.6124,257 1438.6758,257 C 1435.7854,257 1433.6557,257.79597 1431.0263,259.859 C 1429.0222,261.43145 1425.5824,263.04289 1423.3824,263.43998 C 1421.1824,263.83707 1418.4824,264.99271 1417.3824,266.00807 C 1416.2824,267.02344 1412.3451,268.55547 1408.6329,269.4126 C 1404.9206,270.26972 1400.1956,272.06676 1398.1329,273.40602 C 1391.9782,277.40199 1372.8717,281.35691 1360.6703,281.16053 C 1356.4286,281.09226 1352.0822,281.36571 1351.0114,281.7682 C 1349.9407,282.17069 1346.324,284.93492 1342.9742,287.91093 L 1336.8837,293.32186 L 1344.6331,298.25883 C 1348.8952,300.97416 1353.2824,303.98604 1354.3824,304.95189 C 1357.7285,307.88993 1380.7189,311.03993 1398.6589,311.01836 C 1411.0053,311.00352 1415.4967,311.4047 1422.0755,313.11001 C 1427.5525,314.52972 1431.8787,315.05015 1435.299,314.70078 C 1438.0949,314.4152 1447.0867,313.4361 1455.2809,312.52502 C 1473.3123,310.52017 1473.0766,310.4083 1473.5927,321.21699 C 1473.7839,325.22265 1474.1308,329.04298 1474.3634,329.70663 C 1474.8315,331.042 1482.6857,333.46754 1499.4751,337.4616 C 1508.8196,339.68459 1510.9904,339.90791 1513.2493,338.87867 C 1515.3703,337.91231 1519.2187,337.93165 1531.6567,338.97118 C 1540.3058,339.69405 1548.4613,340.68536 1549.78,341.1741 C 1551.4246,341.78364 1553.736,341.54507 1557.14,340.41444 C 1563.9884,338.13977 1569.1425,338.96727 1572.4252,342.86849 C 1573.9936,344.73244 1576.2519,346.11673 1578.1927,346.40379 C 1579.947,346.66328 1584.7574,347.40705 1588.8824,348.05661 C 1593.0074,348.70618 1600.6382,349.81278 1605.8397,350.51573 C 1613.6721,351.57422 1615.6264,352.19811 1617.2142,354.14691 C 1619.2575,356.65478 1619.2545,354.94468 1617.2662,383.5 C 1616.7182,391.37095 1615.2652,396.83592 1611.4759,405.27851 C 1610.0495,408.4567 1608.8824,411.62953 1608.8824,412.32925 C 1608.8824,413.02897 1610.7949,414.53105 1613.1324,415.6672 C 1615.4699,416.80335 1619.4635,419.32201 1622.0071,421.26423 C 1624.5507,423.20646 1627.7007,425.34653 1629.0071,426.01996 C 1630.3135,426.69339 1632.6765,428.42689 1634.2581,429.87219 C 1637.03,432.40518 1636.9875,432.22936 1633.0808,425 C 1623.1636,406.64841 1622.4321,395.50023 1630.9145,391.98671 C 1638.4601,388.86119 1645.6215,394.05065 1648.8851,405.00899 C 1650.017,408.80976 1651.388,412.19445 1651.9318,412.53051 C 1653.1654,413.29295 1657.8824,422.50166 1657.8824,424.1476 C 1657.8824,424.81534 1660.4195,429.2178 1663.5204,433.93084 C 1666.6213,438.64388 1670.5313,444.59358 1672.2093,447.15239 C 1674.7925,451.0916 1675.8827,451.90108 1679.3213,452.43298 C 1681.5549,452.77849 1685.7911,454.22814 1688.7352,455.65442 C 1695.4536,458.90926 1696.9841,462.17453 1697.5686,474.5 C 1698.157,486.90581 1698.2418,487.14831 1703.3269,490.9584 C 1710.2746,496.1641 1711.5531,503.3689 1706.7383,510.18218 L 1704.8428,512.86436 L 1710.4975,522.18218 C 1713.6075,527.30698 1717.641,535.02606 1719.4608,539.3357 C 1721.2805,543.64533 1725.4742,551.74533 1728.7801,557.3357 C 1734.4821,566.9781 1741.8824,581.88068 1741.8824,583.72082 C 1741.8824,584.18937 1745.0774,590.85637 1748.9825,598.53635 C 1758.3452,616.94985 1771.4269,644.86425 1774.506,653.00005 C 1775.8591,656.57505 1778.5965,662.65005 1780.5892,666.50005 C 1783.9151,672.92595 1787.039,680.65735 1799.3772,713.00005 C 1801.7901,719.32505 1806.0161,730.12505 1808.7683,737.00005 C 1819.3609,763.46025 1819.9208,769.00005 1812.0026,769.00005 C 1807.1215,769.00005 1805.6137,766.74455 1800.9492,752.46625 C 1799.1585,746.98485 1794.1597,734.62505 1789.8407,725.00005 C 1779.6648,702.32265 1772.5131,685.51455 1770.9062,680.50005 C 1770.2013,678.30005 1769.0115,675.37505 1768.2623,674.00005 C 1765.549,669.02045 1755.8824,646.81035 1755.8824,645.55595 C 1755.8824,644.84855 1754.9685,643.10785 1753.8515,641.68785 C 1752.7345,640.26785 1750.2978,635.01015 1748.4367,630.00405 C 1746.5755,624.99795 1743.1607,617.77075 1740.8483,613.94355 C 1738.5358,610.11625 1735.5931,604.40085 1734.3088,601.24245 C 1733.0246,598.08415 1730.0936,591.9 1727.7955,587.5 C 1725.4975,583.1 1719.1703,570.725 1713.7351,560 C 1699.7543,532.41204 1696.1416,526.01326 1689.4973,517.07084 C 1683.6103,509.14765 1681.4414,507.54264 1672.8824,504.77551 L 1668.3824,503.32066 L 1667.7676,495.85257 C 1667.1596,488.46725 1663.9466,481.04342 1661.3448,481.01238 C 1659.7383,480.99321 1651.7169,472.22131 1646.5801,464.86608 C 1644.0319,461.21742 1640.5983,457.09731 1638.9499,455.71027 C 1636.1579,453.36092 1623.2695,448.55963 1612.8824,445.99935 C 1610.4074,445.3893 1605.8444,443.56488 1602.7424,441.94508 C 1599.6054,440.30702 1595.5365,439 1593.574,439 C 1590.1286,439 1589.9977,439.14724 1588.0181,445.25 C 1586.9031,448.6875 1585.8539,452.625 1585.6866,454 C 1585.4422,456.00852 1583.908,457.22823 1577.8824,460.20427 C 1573.7574,462.24161 1568.9141,464.20528 1567.1195,464.56797 C 1565.2177,464.95234 1563.1086,466.3271 1562.0633,467.86371 C 1559.4516,471.70308 1557.6311,480.14341 1558.4607,484.56589 C 1559.4269,489.71587 1568.3306,508.133 1571.122,510.75538 C 1572.366,511.92408 1577.3752,514.28903 1582.2534,516.01083 C 1599.9558,522.259 1608.4995,528.60782 1613.1904,539 C 1615.6721,544.49809 1616.5989,557.13053 1615.0509,564.35879 C 1614.4453,567.18646 1613.8451,577.15 1613.717,586.5 C 1613.4377,606.89465 1614.4242,611.02715 1624.5785,632.00005 C 1628.1734,639.42505 1632.0749,647.51785 1633.2485,649.98425 C 1634.4222,652.45055 1636.7594,656.50055 1638.4423,658.98425 C 1640.1253,661.46785 1642.8253,666.60135 1644.4423,670.39185 C 1648.8008,680.60845 1654.2937,686.23025 1663.1528,689.54135 C 1683.1009,696.99695 1686.1192,698.71565 1693.5725,706.86375 C 1704.5581,718.87345 1705.3824,720.94195 1705.3824,736.50005 C 1705.3824,747.97525 1705.1263,749.96915 1703.1993,753.50005 C 1701.9986,755.70005 1700.5097,759.16175 1699.8906,761.19285 C 1699.2716,763.22385 1696.5001,767.94885 1693.7319,771.69285 C 1690.9637,775.43675 1688.2906,779.25705 1687.7916,780.18225 C 1687.2927,781.10755 1685.9868,782.14945 1684.8896,782.49775 C 1683.6683,782.88535 1681.4844,786.06275 1679.2588,790.69015 C 1675.6277,798.23935 1675.6238,798.26205 1676.3014,807.87465 C 1676.6746,813.16865 1677.0961,819.52505 1677.238,822.00005 C 1677.3799,824.47505 1677.8583,830.12365 1678.3011,834.55255 C 1679.8709,850.25385 1676.3536,857.77375 1666.3986,859.99915 C 1663.6575,860.61195 1659.4378,861.98775 1657.0215,863.05665 C 1654.6051,864.12545 1651.1621,865.00005 1649.3703,865.00005 C 1646.9904,865.00005 1645.6667,865.68025 1644.4586,867.52405 C 1642.9616,869.80875 1642.2156,870.03345 1636.5936,869.89315 C 1633.1774,869.80795 1624.3186,870.30085 1616.9072,870.98855 C 1605.9046,872.00955 1602.7853,871.99935 1599.9072,870.93335 C 1597.9686,870.21525 1595.2574,869.55685 1593.8824,869.47015 C 1592.5074,869.38345 1590.3603,869.24215 1589.111,869.15625 C 1587.8044,869.06635 1586.3905,868.01455 1585.7825,866.68015 C 1582.8337,860.20825 1552.1823,855.79885 1534.3769,859.28505 C 1515.8556,862.91155 1510.343,862.68335 1509.2288,858.24395 C 1508.8703,856.81585 1509.0559,854.37855 1509.6412,852.82795 C 1510.3413,850.97335 1510.3651,849.79835 1509.7109,849.39405 C 1509.164,849.05595 1507.1065,846.24155 1505.1389,843.13975 C 1503.1712,840.03785 1500.9133,837.11485 1500.1214,836.64405 C 1499.3294,836.17335 1498.0171,835.01225 1497.2051,834.06395 C 1495.9774,832.63015 1494.4362,832.41265 1488.0556,832.77325 C 1482.9153,833.06375 1478.3277,832.67065 1474.1578,831.58265 C 1469.0569,830.25165 1467.1055,830.16685 1463.3481,831.11295 C 1460.8263,831.74795 1456.2303,832.00605 1453.1347,831.68655 C 1447.8668,831.14295 1447.2056,831.32645 1442.8104,834.55285 C 1440.2276,836.44875 1437.4997,838.00275 1436.7484,838.00615 C 1435.9971,838.00955 1434.1259,838.66775 1432.5902,839.46875 C 1431.0544,840.26985 1428.1294,841.20735 1426.0902,841.55215 C 1418.4133,842.85005 1407.2157,846.29035 1402.6327,848.75905 C 1399.8134,850.27765 1396.2484,853.48245 1393.8613,856.64415 C 1391.6494,859.57375 1388.6118,862.59385 1387.1111,863.35545 C 1382.4034,865.74465 1369.5824,869.82265 1364.7476,870.46865 C 1360.1962,871.07685 1358.1732,872.49335 1356.0946,876.52785 C 1355.2318,878.20245 1355.745,879.56715 1359.0396,884.36045 C 1363.6424,891.05705 1366.1783,897.49225 1365.3023,900.25255 C 1364.7316,902.05045 1365.1253,902.13765 1371.5378,901.63375 C 1375.3023,901.33795 1380.4964,900.80585 1383.0803,900.45145 C 1387.1369,899.89495 1411.0717,902.38095 1412.9735,903.55635 C 1413.896,904.12645 1430.8173,906.76645 1441.3824,907.98855 C 1446.3324,908.56105 1461.4074,909.45775 1474.8824,909.98105 C 1512.405,911.43825 1514.7492,911.71305 1518.081,915.04475 C 1520.3469,917.31075 1520.8824,918.73575 1520.8824,922.50005 C 1520.8824,926.31045 1520.3526,927.68365 1517.9593,930.07695 C 1515.2154,932.82095 1514.5566,932.99715 1507.2093,932.95215 C 1502.9045,932.92585 1491.7927,932.52185 1482.5164,932.05435 C 1466.6047,931.25255 1465.4586,931.31755 1462.2624,933.20335 C 1459.0374,935.10615 1457.6844,935.17235 1434.1284,934.57895 C 1420.5181,934.23605 1405.7113,933.70765 1401.2244,933.40455 C 1394.52,932.95175 1392.4709,933.17665 1389.7244,934.66665 C 1387.3775,935.93995 1382.8094,936.72585 1374.3824,937.30625 C 1358.4139,938.40605 1353.7023,938.37145 1324.3824,936.93875 C 1310.6324,936.26685 1296.7949,935.77865 1293.6324,935.85385 C 1290.4699,935.92905 1285.5199,936.04165 1282.6324,936.10425 C 1279.7449,936.16675 1271.7574,935.71095 1264.8824,935.09135 C 1240.8807,932.92815 1231.361,932.71645 1215.5719,933.99475 C 1200.1993,935.23935 1199.6808,935.35545 1196.8493,938.18695 C 1193.9974,941.03885 1193.7333,941.09555 1184.0693,940.92905 C 1178.3403,940.83035 1173.3208,941.23025 1172.1022,941.88245 C 1170.7186,942.62295 1163.421,942.94085 1150.6927,942.81535 C 1134.7077,942.65765 1130.0048,942.95255 1123.3824,944.52795 C 1109.4414,947.84435 1101.3333,946.41915 1097.5319,939.98385 C 1096.0765,937.51995 1095.119,937.00005 1092.0373,937.00005 C 1089.9847,937.00005 1086.5226,937.94115 1084.3438,939.09135 C 1080.6072,941.06395 1079.3513,941.14855 1062.2121,940.58315 C 1052.2184,940.25335 1042.0881,939.71585 1039.7003,939.38855 C 1035.4352,938.80395 1035.3359,938.85705 1034.0524,942.40635 C 1031.7132,948.87525 1026.2745,949.97915 1006.8824,947.92115 z M 318.32143,804.75005 C 317.93879,803.51255 316.75884,800.78215 315.69931,798.68255 C 314.01452,795.34395 313.43483,794.93845 311.07762,795.44935 C 290.22734,799.96915 246.27248,801.80445 239.74287,798.42785 C 236.75045,796.88045 236.71318,796.76555 237.36913,791.11385 C 237.88315,786.68505 237.70172,785.09495 236.57573,784.16045 C 234.77722,782.66785 234.24439,783.79015 233.27228,791.11825 C 232.70843,795.36875 232.09618,796.54165 229.74255,797.88035 C 225.70759,800.17535 226.10003,801.99755 230.63235,802.01185 C 232.69485,802.01845 236.85735,802.72695 239.88235,803.58645 C 244.09786,804.78415 253.43959,805.32515 279.88235,805.90295 C 298.85735,806.31755 315.42517,806.73405 316.69974,806.82845 C 318.66758,806.97415 318.91219,806.66065 318.32143,804.75005 z"
     id="path2525"
     sodipodi:nodetypes="csssssssssssssssssssssssssssssssssssssssssssssssssssssssscccsssssssssssssssssssssssssssssssssssssssssssssssssssssssssscccsssssssssssssssssssssssssssssssssssssssssssssssssssssscccssssssssssssssscccssssssssssssssssssssssssssssssssssssssssssssssssscccsssssssssssssssssssssssssssssssscccsssssssssscccsssssssssssssssssssssssssssssssscccssssssssssssssssssscccssssssssssssssssssscccsssssscccssssssssssssssssssssssssssssssssssssssssssssssssssssssssssssssssssssssssssssssssssssssssssssssssssssssssssssssssssssssssssssssssssssssssssssssssssssssssscccssssssssssssssssssssssssssssssssssscccssssssssssssssssssssscccssssssssssssssssssssssssssssssssssssssssssssssssssssssssssssssssssssssssssssssssssssssssssssssssccsssssssssssc" />
</svg>
