<?xml version="1.0" encoding="UTF-8" standalone="no"?>
<!-- Created with Inkscape (http://www.inkscape.org/) -->
<svg
   xmlns:dc="http://purl.org/dc/elements/1.1/"
   xmlns:cc="http://creativecommons.org/ns#"
   xmlns:rdf="http://www.w3.org/1999/02/22-rdf-syntax-ns#"
   xmlns:svg="http://www.w3.org/2000/svg"
   xmlns="http://www.w3.org/2000/svg"
   xmlns:sodipodi="http://sodipodi.sourceforge.net/DTD/sodipodi-0.dtd"
   xmlns:inkscape="http://www.inkscape.org/namespaces/inkscape"
   id="svg5044"
   sodipodi:version="0.32"
   inkscape:version="0.46"
   width="2480"
   height="3508"
   version="1.0"
   sodipodi:docname="aen3.svg"
   inkscape:output_extension="org.inkscape.output.svg.inkscape">
  <metadata
     id="metadata5049">
    <rdf:RDF>
      <cc:Work
         rdf:about="">
        <dc:format>image/svg+xml</dc:format>
        <dc:type
           rdf:resource="http://purl.org/dc/dcmitype/StillImage" />
      </cc:Work>
    </rdf:RDF>
  </metadata>
  <defs
     id="defs5047">
    <inkscape:perspective
       sodipodi:type="inkscape:persp3d"
       inkscape:vp_x="0 : 526.18109 : 1"
       inkscape:vp_y="0 : 1000 : 0"
       inkscape:vp_z="744.09448 : 526.18109 : 1"
       inkscape:persp3d-origin="372.04724 : 350.78739 : 1"
       id="perspective5051" />
  </defs>
  <sodipodi:namedview
     inkscape:window-height="1180"
     inkscape:window-width="1920"
     inkscape:pageshadow="2"
     inkscape:pageopacity="0.0"
     guidetolerance="10.0"
     gridtolerance="10.0"
     objecttolerance="10.0"
     borderopacity="1.0"
     bordercolor="#666666"
     pagecolor="#ffffff"
     id="base"
     showgrid="false"
     inkscape:zoom="0.45254834"
     inkscape:cx="959.86171"
     inkscape:cy="1612.3999"
     inkscape:window-x="-1"
     inkscape:window-y="0"
     inkscape:current-layer="svg5044" />
  <path
     style="fill:#000000"
     d="M 1038.9693,2709.9226 C 1019.5345,2708.4958 991.23339,2704.6153 975.6534,2701.2411 C 957.88778,2697.3933 959.0355,2699.2006 955.92931,2670.1754 L 954.47091,2656.5477 L 941.36977,2650.6684 C 934.16457,2647.4347 921.10828,2642.2728 912.35607,2639.1975 C 891.49266,2631.8666 879.74165,2633.0252 837.88579,2646.5402 C 809.87,2655.5863 803.32573,2656.911 785.7897,2657.0862 C 767.38526,2657.2701 765.10749,2656.8089 758.1215,2651.4833 C 753.93454,2648.2914 748.15681,2640.6579 745.28198,2634.52 L 740.05492,2623.3601 L 752.51016,2608.3549 C 759.36048,2600.1016 764.96541,2592.6927 764.96541,2591.8903 C 764.96541,2587.4698 755.06326,2584.8542 719.60141,2579.9071 C 672.56798,2573.3456 648.75307,2567.9271 626.8195,2558.7962 C 607.9656,2550.9471 598.10743,2541.8742 588.16507,2523.2203 C 584.38956,2516.1367 580.61294,2510.3329 579.77281,2510.3229 C 569.91088,2510.2058 536.16487,2505.0693 528.29146,2502.4868 C 516.53824,2498.6316 512.87874,2494.9568 500.14861,2474.2267 C 488.84286,2455.8158 482.30433,2433.6931 480.77985,2408.6944 C 479.63566,2389.9316 479.64605,2389.8865 490.55118,2365.6051 C 514.05232,2313.278 537.24984,2265.3301 545.91035,2251.1803 C 564.00367,2221.6197 584.41718,2176.7644 591.88555,2150.1585 C 594.39777,2141.2087 595.73221,2120.5309 596.94822,2071.7139 C 598.79796,1997.4484 597.92844,2003.0475 620.45156,1920.3488 C 630.78858,1882.3938 637.25308,1863.1101 644.47529,1848.6852 C 655.79674,1826.0728 656.1198,1827.3761 635.7865,1813.6407 C 628.4454,1808.6819 616.22439,1798.6851 608.62852,1791.4258 L 594.81784,1778.2269 L 594.81784,1762.0995 C 594.81784,1739.9607 605.51504,1699.4477 628.00788,1636.4012 C 656.67112,1556.0591 668.87158,1517.5066 677.65761,1479.5119 C 682.15436,1460.0665 686.29889,1443.68 686.86789,1443.0975 C 687.43689,1442.515 693.55359,1439.0347 700.46069,1435.3635 C 712.278,1429.0825 713.43588,1427.7108 720.08379,1412.1158 C 723.96956,1403.0008 732.80685,1376.1528 739.7228,1352.4537 C 752.92669,1307.207 754.1343,1297.7421 751.6075,1259.3042 C 750.80427,1247.0915 751.35095,1243.8147 754.83102,1239.9693 C 757.13552,1237.4226 760.33982,1235.3391 761.95114,1235.3391 C 763.56268,1235.3391 765.646,1232.6046 766.58048,1229.2624 C 768.50646,1222.3753 768.83019,1143.439 767.17511,1084.2072 L 766.07026,1044.6657 L 777.76139,1040.6694 C 784.19142,1038.4715 790.71359,1037.1572 792.25531,1037.7487 C 795.31399,1038.9225 807.29945,1057.9172 811.66274,1068.5061 C 813.45636,1072.8587 814.91454,1096.0036 815.90913,1135.9022 C 817.30633,1191.9478 821.45374,1269.8745 823.62367,1280.8463 C 824.12704,1283.3914 828.53629,1290.4943 833.42196,1296.6306 C 844.59358,1310.6612 844.78097,1316.9729 834.71398,1340.1307 C 827.62346,1356.441 827.12606,1359.137 827.17644,1380.9876 C 827.22196,1400.6524 828.43177,1408.766 834.76767,1431.8828 C 845.31528,1470.3666 845.02735,1482.3994 832.36152,1532.4234 C 822.32392,1572.0668 820.21122,1590.2213 825.06948,1595.0797 C 826.52789,1596.5381 832.19668,1597.7313 837.66681,1597.7313 C 846.89632,1597.7313 848.52399,1596.7941 860.26882,1584.7168 C 876.05542,1568.4833 878.39925,1561.1747 884.41231,1509.43 C 891.99073,1444.2131 895.18995,1437.4861 941.33905,1389.7286 L 970.446,1359.6075 L 989.792,1357.982 C 1039.8238,1353.7785 1076.179,1360.9791 1092.273,1378.2798 C 1110.1539,1397.5017 1120.1641,1415.5853 1132.4081,1450.7857 C 1139.1721,1470.2311 1146.5202,1492.0971 1148.7377,1499.3768 L 1152.7693,1512.6125 L 1166.0275,1516.1386 C 1189.0375,1522.2581 1207.3504,1531.3707 1229.0042,1547.476 C 1260.1189,1570.618 1300.94,1613.6779 1311.5384,1634.5369 C 1322.1331,1655.3881 1338.4283,1731.0286 1349.5474,1810.9682 C 1361.6486,1897.9695 1368.348,1927.0411 1383.6748,1959.0629 C 1391.5223,1975.4586 1395.2764,1979.8403 1433.8456,2017.6201 C 1494.7805,2077.3083 1547.0447,2137.1702 1558.5692,2160.4752 C 1568.2272,2180.0054 1566.8393,2183.9833 1541.5012,2209.4039 C 1519.7369,2231.239 1512.7547,2242.3564 1510.5072,2258.753 C 1508.5768,2272.8371 1515.5115,2288.3786 1525.5664,2292.5017 C 1535.1609,2296.4361 1561.9508,2299.7293 1607.9693,2302.6312 C 1628.63,2303.9341 1656.9696,2306.015 1670.946,2307.2555 C 1695.9307,2309.4732 1696.9615,2309.3783 1732.3151,2301.6063 C 1762.7304,2294.92 1809.2905,2286.2379 1841.4573,2281.2546 C 1856.796,2278.8783 1888.0189,2289.4578 1932.5574,2312.123 C 1970.04,2331.1973 1991.2563,2357.7454 1993.1816,2387.9824 L 1994.0575,2401.7405 L 1983.3144,2407.1695 C 1977.4056,2410.1555 1964.1191,2415.2743 1953.7887,2418.5444 C 1936.4374,2424.0371 1932.2478,2424.4768 1898.8091,2424.3144 C 1878.7313,2424.217 1844.8686,2422.1759 1822.7673,2419.731 C 1751.6326,2411.8623 1717.4192,2414.0534 1628.9615,2432.1432 C 1573.4598,2443.4931 1543.2847,2451.5555 1538.4423,2456.3285 C 1533.4731,2461.2269 1537.6535,2464.0945 1573.7188,2480.5257 C 1625.1747,2503.9689 1660.3197,2523.7685 1712.9201,2558.9478 C 1731.2107,2571.1803 1759.8255,2588.7344 1776.5093,2597.9569 C 1810.0686,2616.5078 1821.1202,2623.9413 1827.8366,2632.4798 C 1835.1185,2641.7372 1843.6047,2666.8227 1842.8611,2676.893 C 1842.0079,2688.4475 1834.6823,2693.624 1810.9606,2699.4344 C 1796.0086,2703.0968 1785.7246,2703.6691 1737.2372,2703.5376 C 1673.2799,2703.3639 1634.2244,2699.9703 1563.7751,2688.4654 C 1538.253,2684.2975 1506.9303,2679.6756 1494.1693,2678.1947 C 1462.9629,2674.5728 1375.802,2675.1506 1329.546,2679.2859 C 1306.2674,2681.367 1266.8371,2682.6543 1225.8671,2682.6711 L 1159.7533,2682.6983 L 1148.5273,2694.619 C 1139.0585,2704.6736 1135.4686,2706.9218 1125.5916,2708.9821 C 1114.9877,2711.1938 1063.8517,2711.7489 1038.9693,2709.9226 z M 1452.5446,2445.2057 C 1485.9087,2440.8216 1498.794,2433.7223 1518.8115,2408.6944 C 1533.3364,2390.5337 1534.6058,2386.3147 1533.3916,2360.2265 C 1532.7941,2347.3854 1531.6026,2335.2157 1530.7439,2333.1825 C 1528.504,2327.879 1515.605,2322.3563 1502.2345,2320.9763 C 1493.5923,2320.0844 1484.0137,2321.5084 1463.8945,2326.6758 C 1437.2109,2333.5294 1427.878,2334.9257 1427.878,2332.0642 C 1427.878,2331.2391 1437.6173,2321.0468 1449.5208,2309.4147 C 1474.1595,2285.3379 1485.0978,2269.9169 1492.0362,2249.4762 C 1496.3472,2236.7763 1496.6044,2233.7633 1494.4084,2221.6804 C 1491.7857,2207.25 1483.6818,2187.5096 1477.1439,2179.6251 C 1468.8957,2169.678 1445.5941,2167.6636 1406.2905,2173.4996 C 1360.6627,2180.2746 1338.937,2190.1591 1316.5679,2214.3204 C 1298.1502,2234.2138 1292.0435,2248.9788 1285.5284,2289.3702 C 1273.6523,2362.9952 1269.2828,2408.983 1273.0718,2420.4642 C 1276.1561,2429.8097 1287.453,2440.3677 1298.1438,2443.896 C 1319.4564,2450.9297 1403.5538,2451.643 1452.5446,2445.2057 z M 1243.124,2431.3439 C 1243.7909,2428.0018 1245.4434,2409.3744 1246.7961,2389.9495 C 1248.7705,2361.5934 1250.4881,2350.922 1255.5084,2335.8114 C 1263.3069,2312.3387 1265.9019,2293.8942 1268.7989,2241.3554 C 1271.6627,2189.4185 1274.2184,2163.3322 1281.0608,2116.2037 C 1292.7477,2035.7055 1296.6087,1976.0769 1292.888,1933.5424 C 1290.73,1908.8705 1290.9771,1902.2551 1295.1576,1872.7755 C 1301.9558,1824.8383 1304.0599,1794.5979 1304.0994,1744.269 C 1304.1359,1697.311 1302.0406,1680.7299 1293.0235,1656.629 C 1287.5306,1641.948 1278.9565,1630.877 1273.0797,1630.877 C 1264.3439,1630.877 1263.6914,1637.3106 1266.6015,1694.7397 C 1269.753,1756.9302 1267.6911,1800.3803 1258.8992,1857.047 C 1251.0631,1907.5533 1250.2404,1924.3484 1254.1538,1953.9066 C 1259.2218,1992.1834 1260.6753,2023.5352 1258.0791,2038.5682 C 1256.82,2045.8603 1253.8075,2063.2617 1251.3848,2077.2381 C 1245.6838,2110.128 1240.9988,2156.0655 1236.6836,2221.3912 C 1232.7786,2280.5037 1229.3443,2305.0124 1221.0427,2333.0093 C 1216.9328,2346.8697 1214.9816,2359.5443 1214.1539,2377.7585 L 1212.9993,2403.1702 L 1220.292,2415.3236 C 1224.3029,2422.0079 1228.9214,2429.7143 1230.555,2432.4488 C 1234.7733,2439.5093 1241.6146,2438.908 1243.124,2431.3439 z M 962.8225,2427.4774 C 987.44131,2421.282 1033.9882,2396.0675 1097.7743,2354.3734 C 1112.4945,2344.7514 1132.0024,2332.7094 1141.1254,2327.6134 C 1151.1955,2321.9881 1158.1767,2316.5724 1158.8942,2313.8289 C 1160.4527,2307.8683 1153.7155,2299.5237 1144.5578,2296.0726 C 1121.9008,2287.5345 1109.2175,2281.2435 1085.8949,2266.9755 C 1034.3008,2235.4117 1027.5248,2232.1761 998.08967,2225.0464 C 988.36695,2222.6915 974.15146,2218.7031 966.49968,2216.1835 C 957.84005,2213.3319 950.33124,2212.1534 946.6123,2213.062 C 943.32602,2213.8648 930.2651,2220.6731 917.588,2228.1915 C 904.91068,2235.71 882.06958,2248.3248 866.82944,2256.2245 C 842.67578,2268.7447 837.79254,2272.241 828.77163,2283.4727 C 806.23658,2311.5311 796.73704,2340.7156 801.98885,2365.7543 C 808.83718,2398.4034 827.50834,2416.614 864.4023,2426.6273 C 883.55097,2431.8246 943.49064,2432.3421 962.8225,2427.4774 z M 1170.3592,2427.3704 C 1183.0984,2421.3253 1186.0292,2406.5621 1178.0148,2388.8071 C 1169.7228,2370.4371 1146.6833,2351.242 1132.9261,2351.242 C 1126.23,2351.242 1113.3456,2359.0748 1104.344,2368.6178 C 1099.1792,2374.0933 1097.9736,2377.2476 1098.2591,2384.5379 C 1099.0444,2404.5766 1110.3119,2416.205 1138.1322,2425.688 C 1155.5668,2431.631 1160.8044,2431.9045 1170.3592,2427.3704 z M 571.72439,2388.2546 C 585.25179,2376.3531 613.97093,2340.4063 625.53699,2320.8989 C 630.41425,2312.6732 636.9214,2299.2384 639.99776,2291.0439 C 655.36584,2250.106 715.31568,2011.4435 752.61468,1842.7116 C 787.50686,1684.869 786.5863,1690.0756 789.1995,1635.78 C 792.82873,1560.3841 793.83149,1554.9039 813.15982,1504.8805 C 824.87878,1474.5505 826.85824,1455.4017 820.69315,1432.0032 C 818.29142,1422.8881 815.62806,1410.3049 814.77445,1404.0405 C 812.95962,1390.7229 811.75223,1390.0946 787.88693,1390.0489 L 772.13878,1390.0187 L 767.46525,1400.882 C 764.89536,1406.8567 761.77989,1419.0377 760.54223,1427.9508 C 759.30479,1436.8639 756.87036,1451.1172 755.1322,1459.6245 C 753.39427,1468.1319 751.36531,1492.9911 750.62351,1514.8673 C 749.88171,1536.7434 748.37999,1561.1054 747.28641,1569.0051 C 746.19283,1576.9048 742.74546,1605.7415 739.62557,1633.0867 C 732.39761,1696.4382 729.53516,1713.2702 715.20078,1776.7177 C 708.74821,1805.2782 695.89831,1866.9291 686.64515,1913.7197 C 670.18813,1996.9385 654.74469,2061.4018 632.64871,2139.11 C 618.98144,2187.1765 614.34017,2200.1436 591.52338,2254.0148 C 565.56262,2315.3085 550.62543,2364.2017 550.6241,2387.8863 C 550.62322,2400.9271 557.19025,2401.0418 571.72439,2388.2546 z M 878.94903,2216.173 C 893.05669,2212.6207 896.95042,2206.5589 898.80879,2185.2562 C 899.67742,2175.2973 901.6571,2166.2524 903.33538,2164.5741 C 906.68507,2161.2245 936.54177,2153.9007 961.62948,2150.2747 C 970.74453,2148.9572 1013.4043,2145.4729 1056.4289,2142.5316 C 1109.1697,2138.9262 1135.1829,2136.3304 1136.2745,2134.5643 C 1137.165,2133.1236 1138.6143,2115.6027 1139.4953,2095.6291 C 1140.9186,2063.3641 1141.6865,2058.205 1146.3808,2049.3763 C 1149.2868,2043.9109 1151.6644,2037.7429 1151.6644,2035.6695 C 1151.6644,2033.5962 1146.1711,2023.6948 1139.4571,2013.6666 C 1132.7431,2003.6383 1119.2224,1980.8151 1109.411,1962.9485 C 1076.7531,1903.478 1076.0608,1902.87 1016.8722,1881.6877 C 982.91848,1869.5364 966.03873,1857.1033 959.24852,1839.2442 C 957.98589,1835.9231 956.08311,1817.8394 955.02024,1799.0581 C 953.16409,1766.2584 952.78004,1764.2878 945.2931,1749.139 C 941.00583,1740.4646 935.53083,1731.5869 933.12601,1729.4106 C 928.89773,1725.584 927.98534,1725.7542 905.41029,1734.5807 C 892.57122,1739.6005 869.39138,1747.2432 853.89955,1751.5646 C 838.40773,1755.886 824.67726,1759.7297 823.38767,1760.1061 C 822.09831,1760.4827 819.84242,1768.6003 818.37517,1778.1455 C 816.9077,1787.6906 812.7424,1805.3573 809.11892,1817.4047 C 801.70712,1842.0469 801.01017,1852.0892 805.90026,1863.7928 C 809.11229,1871.48 808.95165,1872.8134 802.47543,1892.2364 C 798.73815,1903.4446 792.11808,1918.581 787.76407,1925.8731 L 779.84757,1939.1313 L 780.20687,1968.6554 L 780.56551,1998.1797 L 770.69209,2015.0593 C 754.09121,2043.4401 749.10964,2061.844 750.87078,2088.2867 C 751.47801,2097.4017 751.12534,2109.3341 750.08722,2114.8032 C 747.4844,2128.518 750.64185,2146.1898 758.72011,2163.1161 C 771.76136,2190.4417 785.9815,2200.8311 826.83725,2212.8835 C 847.44278,2218.9621 863.77783,2219.9932 878.94903,2216.173 L 878.94903,2216.173 z"
     id="path4816" />
</svg>
