<?xml version="1.0" encoding="UTF-8" standalone="no"?>
<!-- Created with Inkscape (http://www.inkscape.org/) -->
<svg
   xmlns:dc="http://purl.org/dc/elements/1.1/"
   xmlns:cc="http://creativecommons.org/ns#"
   xmlns:rdf="http://www.w3.org/1999/02/22-rdf-syntax-ns#"
   xmlns:svg="http://www.w3.org/2000/svg"
   xmlns="http://www.w3.org/2000/svg"
   xmlns:sodipodi="http://sodipodi.sourceforge.net/DTD/sodipodi-0.dtd"
   xmlns:inkscape="http://www.inkscape.org/namespaces/inkscape"
   id="svg2"
   sodipodi:version="0.32"
   inkscape:version="0.46"
   width="3508"
   height="4961"
   version="1.0"
   sodipodi:docname="chemclimber.svg"
   inkscape:output_extension="org.inkscape.output.svg.inkscape">
  <metadata
     id="metadata7">
    <rdf:RDF>
      <cc:Work
         rdf:about="">
        <dc:format>image/svg+xml</dc:format>
        <dc:type
           rdf:resource="http://purl.org/dc/dcmitype/StillImage" />
      </cc:Work>
    </rdf:RDF>
  </metadata>
  <defs
     id="defs5">
    <inkscape:perspective
       sodipodi:type="inkscape:persp3d"
       inkscape:vp_x="0 : 526.18109 : 1"
       inkscape:vp_y="0 : 1000 : 0"
       inkscape:vp_z="744.09448 : 526.18109 : 1"
       inkscape:persp3d-origin="372.04724 : 350.78739 : 1"
       id="perspective9" />
  </defs>
  <sodipodi:namedview
     inkscape:window-height="1178"
     inkscape:window-width="1600"
     inkscape:pageshadow="2"
     inkscape:pageopacity="0.0"
     guidetolerance="10.0"
     gridtolerance="10.0"
     objecttolerance="10.0"
     borderopacity="1.0"
     bordercolor="#666666"
     pagecolor="#ffffff"
     id="base"
     showgrid="false"
     inkscape:zoom="0.45254834"
     inkscape:cx="1957.2391"
     inkscape:cy="1025.0972"
     inkscape:window-x="-1"
     inkscape:window-y="0"
     inkscape:current-layer="svg2" />
  <path
     style="fill:#000000"
     d="M 1579.5312,-3.90625 C 1503.0638,-4.3596455 1450.7142,47.456523 1538.9688,132 C 1682.9047,307.95443 1649.1149,554.75153 1633.875,766.34375 C 1566.3064,826.75605 1450.8555,820.58183 1375,880.5 C 1307.5026,928.65201 1235.8131,857.71714 1190.0867,841.13524 C 1132.4364,819.80776 979.79161,760.27653 990.125,852.5625 C 1058.8937,919.85585 1054.0221,1015.9321 1058.5912,1107.9147 C 1050.0104,1242.8168 1074.0791,1344.826 1169.0625,1446.1562 C 1201.3822,1465.5023 1281.1855,1452.3689 1292.2188,1479.2188 C 1313.6951,1531.4822 1239.1511,1595.8042 1268.2394,1648.103 C 1312.3917,1689.4461 1432.5301,1665.0617 1487.0199,1650.5614 C 1594.9803,1601.7751 1622.1836,1708.6878 1464.5625,1714.6562 C 1330.5469,1703.808 1203.4177,1758.0646 1074.8472,1772.132 C 991.28266,1781.5656 910.14545,1803.4083 829.66452,1827.6078 C 678.07959,1854.7904 525.88338,1898.7527 371.4375,1911.4688 C 269.04183,1915.5967 180.66906,1865.7568 102,1810.0312 C -46.810394,1726.1332 14.170743,1955.6057 59.595441,2067.1624 C 135.17133,2202.0575 288.04093,2337.4649 450.99476,2290.1582 C 509.57972,2272.0709 564.62572,2243.7405 624.18672,2226.8923 C 715.88752,2200.8704 806.39625,2173.2935 894.09375,2137.4688 C 1058.6,2074.8611 1235.8524,2052.453 1401.6207,1996.9836 C 1456.2055,1979.381 1556.0366,1955.0902 1641.5,1981 C 1686.1432,2092.9124 1875.7674,2090.7486 1869.5,1950 C 2003.8236,1895.6498 2149.339,1903.5365 2290.4241,1881.5906 C 2476.0825,1877.6832 2652.5506,1812.3595 2838.375,1809.9688 C 2963.1942,1803.443 3089.7491,1830.8721 3200.3374,1885.3183 C 3275.0035,1940.3686 3389.5234,1984.691 3456.181,1892.2007 C 3493.8534,1838.2508 3543.7554,1745.9956 3482.4801,1693.4188 C 3423.4735,1642.8983 3362.3463,1595.1993 3294.6562,1553.5 C 3218.9529,1508.0329 3117.0983,1405.9137 3028.7188,1472.625 C 2883.6737,1539.486 2710.5917,1495.9189 2554.8125,1523.0312 C 2376.686,1565.6029 2196.3905,1593.4244 2013.5,1613.9688 C 1822.524,1631.6499 2009.12,1538.5296 2076.3818,1504.6122 C 2163.688,1464.6765 2288.851,1551.6945 2345.183,1468.231 C 2391.9667,1399.8275 2462.0968,1325.3338 2527.062,1266.4058 C 2606.3499,1190.1861 2675.29,1102.8882 2718.0518,1002.6676 C 2778.8652,890.45327 2810.9583,702.87351 2677.3945,631.54767 C 2606.4254,593.19499 2534.4059,537.56781 2451.652,558.14154 C 2328.5878,588.38735 2199.1934,603.02388 2075.7812,634.0625 C 2099.8829,478.6259 2051.872,334.91667 1965.5116,208.87799 C 1917.6752,141.15111 1848.0933,92.16245 1771.1863,59.49323 C 1705.7616,40.339721 1648.4061,0.7138766 1579.5312,-3.90625 z M 2324.5938,884.375 C 2288.8861,930.72616 2255.9703,981.19717 2223.4946,1031.6897 C 2177.9415,1140.5186 2091.5667,1173.716 1994.375,1228.5 C 1945.4241,1196.9587 1973.4287,1006.8925 2000.25,968.875 C 2111.2623,954.06487 2214.3308,892.72881 2324.5938,884.375 z M 1508.1875,1066.6875 C 1639.9928,1066.1298 1626.5387,1184.196 1621.9838,1281.1186 C 1611.6338,1376.5572 1476.4884,1373.4911 1404.8438,1436.5938 C 1387.4056,1432.8751 1376.5635,1404.2358 1370.5938,1366 C 1358.8261,1290.6296 1365.9781,1177.9824 1378.7188,1145.5 C 1383.6794,1094.845 1447.1937,1066.8436 1508.1875,1066.6875 z M 2337.7188,1981.5312 C 2249.9877,1982.1121 2165.8255,2004.6669 2081.7352,2025.0379 C 1941.5041,2051.0789 1810.1904,2103.7266 1687.4318,2177.1903 C 1623.9426,2222.7804 1559.5468,2286.75 1500.1159,2335.4516 C 1406.4777,2440.506 1422.3601,2325.966 1322,2278.5312 C 1406.3421,2306.3338 1028.5303,2181.4378 1054.0625,2340 C 1155.8213,2391.0237 1153.3544,2617.7516 1147.1633,2706.9988 C 1129.9629,2825.2517 1146.276,2921.9355 1129.9062,3040 C 1127.5617,3203.8434 1085.9972,3354.9697 1070,3515.1562 C 1049.0433,3606.4196 1116.1595,3696.4911 1189.5,3746.5312 C 1246.1967,3792.3243 871.74381,3721.3281 1019.0087,3860.0827 C 1083.3556,3920.793 1145.6808,3982.2234 1208.9062,4044.9375 C 1273.6201,4099.3119 1493.0002,4051.025 1563.6562,4038.6875 C 1511.8092,4108.57 1207.0446,4541.524 1108.8272,4719.7628 C 1052.5561,4787.4515 993.87293,4980.439 1135.7214,4954.7163 C 1216.9576,4937.2339 1289.3986,4867.3412 1337.8417,4801.8796 C 1382.5994,4741.6959 1432.2857,4683.2911 1477.8519,4622.5083 C 1528.5475,4550.4781 1598.4424,4491.594 1662.8438,4432 C 1724.733,4354.874 1807.7168,4301.7408 1881.4699,4237.7017 C 1955.9784,4185.0221 1996.3512,4073.1464 2081.1875,4044.9688 C 2250.7221,4119.6756 2274.5618,4302.3361 2304.7953,4461.8715 C 2323.4468,4549.5555 2393.5009,4621.3147 2465.125,4669.9062 C 2543.0138,4740.0817 2669.8624,4762.8926 2692,4663.5 C 2747.6034,4557.1856 2730.051,4428.4896 2673.2188,4325 C 2604.2513,4174.1714 2464.6785,4078.5618 2329.5,3994.5625 C 2281.0309,3972.4033 2217.7969,3933.8279 2204.6875,3910.9375 C 2185.7826,3850.5806 2264.8084,3790.7883 2220.1675,3734.8498 C 2158.8451,3659.1897 2066.6543,3613.309 1978.0273,3573.0819 C 1882.0536,3529.6717 1779.403,3617.6369 1693.7812,3654.8125 C 1613.4662,3685.6515 1532.9408,3713.3736 1452.0938,3741.5 C 1328.3666,3805.6782 1444.778,3640.8706 1419.5,3583.0938 C 1495.2564,3530.2499 1594.2336,3492.1747 1684.7253,3468.6379 C 1835.5016,3429.3006 2043.1303,3364.4503 2197.2188,3326.0312 C 2169.394,3372.3263 2194.9371,3540.1712 2273.8539,3615.323 C 2342.9447,3675.0397 2415.9459,3755.1502 2461,3626.0312 C 2492.6623,3526.7849 2516.7011,3416.2781 2516.4307,3310.9996 C 2516.5386,3161.8754 2551.827,3015.9144 2557.0398,2867.2789 C 2548.311,2691.6364 2600.0455,2521.7819 2588.5312,2346.5 C 2584.1538,2223.4867 2580.3084,2054.0879 2442.9375,2005.4062 C 2408.1771,1988.3678 2373.0343,1981.727 2337.7188,1981.5312 z M 2265.0625,2225.9688 C 2330.8723,2226.25 2279.4054,2393.8216 2260.2336,2482.3869 C 2251.6396,2583.6499 2250.9777,2677.3313 2115.4375,2646.1562 C 1979.2321,2597.4147 1836.4145,2661.482 1705.7718,2706.4506 C 1638.6488,2729.0622 1539.6106,2747.5914 1489.1875,2777.6562 C 1498.6143,2681.6949 1585.1998,2603.7787 1640.1406,2524.7147 C 1720.5645,2412.1456 1854.1878,2356.1094 1980,2303.4688 C 2075.9951,2272.8638 2162.585,2229.9354 2265.0625,2225.9688 z M 2129.0312,2897.5625 C 2226.8657,2895.2252 2255.0301,3092.9627 2157.8438,3053.5 C 2043.7166,3011.9942 1913.9871,3054.2957 1801.0059,3089.678 C 1682.0066,3126.5 1552.9231,3144.1496 1444.5625,3203.625 C 1384.683,3131.3464 1552.9415,3104.3428 1616.7551,3080.5589 C 1695.3512,3051.1386 1772.5046,3018.9372 1850.7983,2988.7095 C 1942.1408,2952.9501 2031.3894,2905.5637 2129.0312,2897.5625 z"
     id="path2388"
     sodipodi:nodetypes="ccccccccscccccccccccccccccccccccccccccccccccccccccsccccccccccccccccccccccccccccccccccccccccccccccccccccccccc" />
</svg>
