<?xml version="1.0" encoding="UTF-8" standalone="no"?>
<!-- Created with Inkscape (http://www.inkscape.org/) -->
<svg
   xmlns:dc="http://purl.org/dc/elements/1.1/"
   xmlns:cc="http://creativecommons.org/ns#"
   xmlns:rdf="http://www.w3.org/1999/02/22-rdf-syntax-ns#"
   xmlns:svg="http://www.w3.org/2000/svg"
   xmlns="http://www.w3.org/2000/svg"
   xmlns:sodipodi="http://sodipodi.sourceforge.net/DTD/sodipodi-0.dtd"
   xmlns:inkscape="http://www.inkscape.org/namespaces/inkscape"
   id="svg2"
   sodipodi:version="0.32"
   inkscape:version="0.46"
   width="1024"
   height="720"
   version="1.0"
   sodipodi:docname="hman.svg"
   inkscape:output_extension="org.inkscape.output.svg.inkscape">
  <metadata
     id="metadata7">
    <rdf:RDF>
      <cc:Work
         rdf:about="">
        <dc:format>image/svg+xml</dc:format>
        <dc:type
           rdf:resource="http://purl.org/dc/dcmitype/StillImage" />
      </cc:Work>
    </rdf:RDF>
  </metadata>
  <defs
     id="defs5">
    <inkscape:perspective
       sodipodi:type="inkscape:persp3d"
       inkscape:vp_x="0 : 526.18109 : 1"
       inkscape:vp_y="0 : 1000 : 0"
       inkscape:vp_z="744.09448 : 526.18109 : 1"
       inkscape:persp3d-origin="372.04724 : 350.78739 : 1"
       id="perspective9" />
  </defs>
  <sodipodi:namedview
     inkscape:window-height="671"
     inkscape:window-width="640"
     inkscape:pageshadow="2"
     inkscape:pageopacity="0.0"
     guidetolerance="10.0"
     gridtolerance="10.0"
     objecttolerance="10.0"
     borderopacity="1.0"
     bordercolor="#666666"
     pagecolor="#ffffff"
     id="base"
     showgrid="false"
     inkscape:zoom="0.55078125"
     inkscape:cx="512"
     inkscape:cy="422.93944"
     inkscape:window-x="626"
     inkscape:window-y="252"
     inkscape:current-layer="svg2" />
  <path
     style="fill:#000000"
     d="M 450.36879,674.85879 C 417.64379,650.16969 375.11879,618.10859 355.86879,603.61199 C 336.61879,589.11539 307.59379,567.23209 291.36879,554.98229 C 275.14379,542.73259 238.53454,515.11279 210.0149,493.60499 C 181.49526,472.09729 134.69526,436.78329 106.0149,415.12949 C 77.334543,393.47579 49.275421,372.32579 43.661311,368.12949 C 38.047191,363.93329 33.444541,360.27499 33.433201,359.99999 C 33.421851,359.72499 58.040221,340.98149 88.140685,318.34789 C 118.24114,295.71419 163.56879,261.56621 188.86879,242.46348 C 214.16879,223.36075 261.19379,187.90489 293.36879,163.67268 C 325.54379,139.44046 369.19379,106.51424 390.36879,90.503283 C 411.54379,74.492331 447.13546,47.623901 469.46138,30.795661 L 510.05398,0.19887094 L 570.64099,45.849441 C 603.96384,70.957251 682.82807,130.425 745.89483,178 C 808.96158,225.575 884.48076,282.50524 913.71522,304.51159 C 985.50161,358.54919 986.44843,359.27569 986.13947,360.08429 C 985.71913,361.18429 970.86123,372.58489 918.36879,412.08499 C 891.69379,432.15769 816.54379,488.80349 751.36879,537.96439 C 686.19379,587.12539 615.54379,640.40269 594.36879,656.35849 C 573.19379,672.31429 545.96879,692.85189 533.86879,701.99769 C 521.76879,711.14349 511.41879,718.87879 510.86879,719.18729 C 510.31879,719.49579 483.09379,699.54799 450.36879,674.85879 z M 441.36879,631.81709 C 462.69515,616.76829 487.94944,609.35729 514.86879,610.24819 C 543.7351,611.20359 568.49363,620.81079 590.60805,639.63779 C 594.64065,643.07099 598.38358,645.52599 599.02667,645.15959 C 601.00386,644.03329 879.14189,434.41389 881.21332,432.48889 C 882.32669,431.45429 881.76475,429.88649 877.94489,423.36979 C 855.2369,384.62969 856.79583,333.17859 881.80138,296.08999 C 883.80749,293.11449 885.09333,290.37289 884.65882,289.99753 C 884.2243,289.62214 875.31879,282.86292 864.86879,274.97705 C 854.41879,267.09118 839.56879,255.85346 831.86879,250.00434 C 812.76736,235.49441 653.78951,115.75898 622.99601,92.690153 L 598.12323,74.056801 L 594.49601,77.106631 C 592.50104,78.784031 589.06879,81.657091 586.86879,83.491201 C 574.68678,93.647193 556.08025,102.68768 538.36879,107.05627 C 526.38219,110.01281 503.99343,110.76935 491.7331,108.63213 C 467.78281,104.45714 445.38528,93.563903 429.18984,78.213671 L 423.51088,72.831091 L 359.18984,121.26034 C 323.81326,147.89642 266.96879,190.74455 232.86879,216.47841 C 198.76879,242.21227 162.67578,269.39461 152.66211,276.88362 C 142.64843,284.37263 134.43593,290.79819 134.41211,291.16269 C 134.38828,291.52719 135.96692,294.22719 137.9202,297.16269 C 145.46788,308.50579 151.66229,323.73669 155.01841,339.20389 C 157.5135,350.70299 157.5135,375.29709 155.01841,386.79609 C 151.94549,400.95809 146.6448,414.30469 138.77891,427.68539 C 137.749,429.43739 137.12289,431.05019 137.38757,431.26949 C 140.58893,433.92089 361.81046,600.69759 401.28619,630.21999 L 423.70359,646.98509 L 429.28619,641.69439 C 432.35662,638.78459 437.79379,634.33979 441.36879,631.81709 z M 436.56892,551.01369 C 428.38436,549.07529 416.04914,540.63629 406.08318,530.15729 C 400.53369,524.32209 396.54302,517.49319 397.89282,516.14189 C 398.24547,515.78889 405.80934,515.21269 414.7014,514.86149 C 427.4334,514.35859 437.1372,513.15109 460.36879,509.17849 C 476.59379,506.40409 503.45002,502.09519 520.0493,499.60329 C 542.30783,496.26189 551.885,494.40009 556.53562,492.51029 C 566.44346,488.48439 568.64183,488.43879 580.9006,492.00439 C 594.36711,495.92139 604.06465,500.55399 611.61266,506.67579 C 617.54737,511.48919 622.36879,519.16289 622.36879,523.79519 C 622.36879,530.11719 615.74354,537.57809 609.18457,538.64249 C 607.04266,538.99009 600.53985,537.88989 591.34161,535.62389 C 566.72574,529.55959 554.76454,528.89499 526.93654,532.04549 C 479.28291,537.44049 456.47848,542.36459 445.89943,549.54379 C 442.04042,552.16259 441.66759,552.22129 436.56892,551.01369 z M 499.38854,387.74999 C 496.4695,374.37709 494.31145,354.55209 493.32486,332.04579 C 492.73307,318.54559 491.93836,300.52499 491.55883,291.99999 L 490.86879,276.5 L 487.66789,276.74715 C 483.2117,277.09122 452.1124,286.56263 445.05551,289.72492 C 441.68716,291.23429 437.8625,293.94179 435.96165,296.16259 C 425.85692,307.96769 416.8386,300.72039 404.42913,270.82246 C 401.42916,263.59468 401.33085,262.97404 402.75093,260.22791 L 404.25938,257.3109 L 411.06408,259.62963 C 414.80667,260.90494 419.44379,261.95477 421.36879,261.96259 C 423.29379,261.97042 431.39379,260.03302 439.36879,257.65727 C 447.34379,255.28152 462.51581,250.89923 473.0844,247.91886 L 492.30001,242.5 L 492.95127,238.22779 C 493.30947,235.87808 493.41519,226.65308 493.18622,217.72779 C 492.78114,201.93818 492.68394,201.32161 489.58666,194.89333 C 487.68525,190.94702 484.55499,186.58282 481.81307,184.0554 C 477.52062,180.09876 477.26408,179.57927 477.86016,176.05106 C 478.43167,172.66834 478.93066,172.15019 482.68321,171.04285 C 484.98528,170.36353 488.98976,168.66346 491.58207,167.26492 L 496.29534,164.72212 L 501.58207,166.98629 C 519.84666,174.80856 531.19733,182.01157 533.75596,187.40347 C 535.98077,192.09191 535.88932,192.47998 531.41607,197.33288 C 529.24208,199.69138 526.99238,202.85983 526.41675,204.37387 C 525.3141,207.27404 523.66669,236 524.60302,236 C 524.90268,236 528.68506,235.35083 533.00832,234.55739 C 537.33158,233.76396 549.05438,231.9128 559.05899,230.44371 C 576.8585,227.83 577.40934,227.80826 584.70518,229.43143 C 600.00593,232.83552 614.68417,242.36553 617.42702,250.67644 C 619.2781,256.28528 618.04196,262.00882 614.24715,265.39976 L 611.00202,268.29952 L 586.4354,267.50173 C 572.92377,267.06294 558.04379,266.78214 553.36879,266.87773 C 544.5792,267.05744 526.43883,268.84107 525.11879,269.65537 C 524.70629,269.90984 524.36879,280.60113 524.36879,293.41379 C 524.36879,338.94319 521.20559,359.84109 510.82292,382.90559 C 509.16377,386.59129 507.12618,389.26769 504.8507,390.74999 C 502.95108,391.98749 501.20282,392.99999 500.96568,392.99999 C 500.72854,392.99999 500.01883,390.63749 499.38854,387.74999 z"
     id="path2384" />
</svg>
