<?xml version="1.0" encoding="UTF-8" standalone="no"?>
<!-- Created with Inkscape (http://www.inkscape.org/) -->
<svg
   xmlns:dc="http://purl.org/dc/elements/1.1/"
   xmlns:cc="http://creativecommons.org/ns#"
   xmlns:rdf="http://www.w3.org/1999/02/22-rdf-syntax-ns#"
   xmlns:svg="http://www.w3.org/2000/svg"
   xmlns="http://www.w3.org/2000/svg"
   xmlns:sodipodi="http://sodipodi.sourceforge.net/DTD/sodipodi-0.dtd"
   xmlns:inkscape="http://www.inkscape.org/namespaces/inkscape"
   id="svg2440"
   sodipodi:version="0.32"
   inkscape:version="0.46"
   width="1937"
   height="1247"
   version="1.0"
   sodipodi:docname="logo.svg"
   inkscape:output_extension="org.inkscape.output.svg.inkscape">
  <metadata
     id="metadata2445">
    <rdf:RDF>
      <cc:Work
         rdf:about="">
        <dc:format>image/svg+xml</dc:format>
        <dc:type
           rdf:resource="http://purl.org/dc/dcmitype/StillImage" />
      </cc:Work>
    </rdf:RDF>
  </metadata>
  <defs
     id="defs2443">
    <inkscape:perspective
       sodipodi:type="inkscape:persp3d"
       inkscape:vp_x="0 : 526.18109 : 1"
       inkscape:vp_y="0 : 1000 : 0"
       inkscape:vp_z="744.09448 : 526.18109 : 1"
       inkscape:persp3d-origin="372.04724 : 350.78739 : 1"
       id="perspective2447" />
  </defs>
  <sodipodi:namedview
     inkscape:window-height="1173"
     inkscape:window-width="1598"
     inkscape:pageshadow="2"
     inkscape:pageopacity="0.0"
     guidetolerance="10.0"
     gridtolerance="10.0"
     objecttolerance="10.0"
     borderopacity="1.0"
     bordercolor="#666666"
     pagecolor="#ffffff"
     id="base"
     showgrid="false"
     inkscape:zoom="1.4142136"
     inkscape:cx="995.69752"
     inkscape:cy="387.65265"
     inkscape:window-x="0"
     inkscape:window-y="0"
     inkscape:current-layer="svg2440" />
  <path
     style="fill:#000000;fill-opacity:1"
     d="M 952.2828,1139.3683 C 889.69787,1133.8628 838.44713,1119.7502 786.7828,1093.7956 C 743.78085,1072.1927 709.2557,1047.6196 675.42707,1014.5385 C 624.85744,965.08639 588.84369,908.46959 565.0625,841.0357 C 563.06345,835.3672 562.38305,834.45697 559.53559,833.64184 C 556.68725,832.82646 555.5589,833.16254 550.34957,836.37793 C 539.25708,843.2246 532.60212,844.47669 525.7828,841 C 523.62521,839.9 521.03272,839 520.0217,839 C 514.60438,839 503.90854,848.41488 492.75633,863 C 480.27711,879.32061 472.94397,884.82249 460.59163,887.13242 C 452.34907,888.67381 425.01193,887.64248 405.2828,885.04583 C 381.30661,881.89019 338.2232,874.51329 323.36847,871.02014 C 308.71391,867.57408 304.82218,867.36171 297.2143,869.59296 C 292.66963,870.92582 290.63987,872.38291 284.7828,878.51709 C 275.55713,888.17924 271.3325,890.25035 259.73772,890.79542 C 248.44874,891.32612 240.99802,889.58407 228.7828,883.55786 C 216.74,877.61672 205.60154,868.44825 195.15705,855.8793 C 175.89956,832.70473 162.34724,824 145.52444,824 C 128.47426,824 111.67052,831.89214 79.85612,854.84216 C 58.708008,870.09782 50.844465,875.24277 41.546606,879.90724 C 32.189899,884.60123 27.436569,885.98704 20.667661,885.99442 C 4.1946228,886.01238 4.7043068,867.09379 22.136643,831.46834 C 30.605143,814.16176 38.21677,801.3194 58.554482,770.02406 C 100.90648,704.85349 237.94942,503.52701 263.97208,468.25 C 271.39137,458.19222 272.59386,457 275.31898,457 C 292.85667,457 395.40255,491.06979 465.7828,520.2796 C 490.16957,530.40081 506.2181,537.92234 535.7828,553.0868 L 560.7828,565.90991 L 564.63939,554.70496 C 603.67308,441.29623 684.75131,349.63034 791.7828,297.8999 C 852.51544,268.5466 916.43811,254.01004 984.78283,254.01004 C 1071.2173,254.01004 1153.0372,278.10211 1225.2828,324.82588 C 1319.9037,386.02054 1388.6705,482.7316 1415.0804,591.75 L 1418.7747,607 L 1424.2206,607 C 1428.8189,607 1430.765,606.35008 1436.7246,602.82403 C 1445.9228,597.38195 1464.7949,584.47836 1484.7828,569.96484 C 1559.6165,515.62696 1582.8911,500.25887 1609.7828,487.42793 C 1630.4365,477.57339 1637.351,475.64397 1652.2941,475.56561 C 1664.4718,475.50175 1664.9833,475.58746 1671.4789,478.78057 C 1680.0131,482.97581 1684.8749,488.38964 1694.2577,504.1456 C 1708.0419,527.29244 1732.6459,562.86624 1765.7412,607.5 C 1773.8975,618.5 1786.2708,636.05 1793.2374,646.5 C 1847.6095,728.05912 1907.1348,844.36368 1910.8996,876.39638 C 1912.1148,886.73647 1909.9414,889 1898.7978,889 C 1889.7548,889 1881.0716,886.74344 1863.2828,879.77047 C 1850.4526,874.74119 1846.4668,873.61381 1840.1425,873.2252 C 1833.2251,872.80015 1832.0266,873.0146 1827.4751,875.49188 C 1824.7101,876.99676 1819.5982,881.16455 1816.1153,884.75364 C 1803.4898,897.76419 1791.6422,903.28899 1771.3158,905.64479 C 1751.3717,907.95629 1730.5461,915.84429 1709.7828,928.95139 C 1694.4874,938.60669 1688.8677,941.28699 1682.8771,941.78379 C 1674.3421,942.49149 1671.5723,939.29489 1659.3864,914.67339 C 1640.6175,876.7509 1634.434,872.42818 1617.7828,885.58934 C 1611.8546,890.27496 1608.0959,891.91229 1598.4703,894.00209 C 1578.7055,898.29309 1566.0408,899.35559 1533.7828,899.42919 C 1498.8936,899.50889 1492.8137,898.72309 1479.7828,892.45009 C 1471.9273,888.66848 1468.2051,885.38981 1460.402,875.37833 C 1450.8805,863.16207 1441.9387,858.14591 1431.9567,859.42116 C 1415.6332,861.50657 1408.1839,861.02053 1401.1344,857.41009 L 1398.486,856.0537 L 1395.2276,864.27685 C 1393.4355,868.79958 1388.2993,880.15 1383.8137,889.5 C 1326.8757,1008.1852 1218.9172,1095.9279 1091.0342,1127.4549 C 1054.3592,1136.4964 1031.9103,1139.1674 989.78283,1139.502 C 971.63283,1139.6462 954.7578,1139.586 952.2828,1139.3683 z M 1037.7828,1093.089 C 1042.8377,1091.887 1045.9667,1084.7806 1050.4533,1064.3122 C 1052.1822,1056.4248 1052.6216,1050.9691 1052.6935,1036.5 C 1052.7971,1015.6106 1052.0855,1013.3167 1044.2522,1009.2894 C 1036.0852,1005.0906 1026.7724,1004.0071 1008.2828,1005.1048 C 999.20783,1005.6436 985.18123,1005.7845 977.11263,1005.418 L 962.44236,1004.7516 L 959.92867,1009.7121 C 953.70052,1022.0028 950.2828,1039.1057 950.2828,1057.9818 C 950.2828,1075.1559 952.06516,1079.7896 960.2828,1083.9789 C 965.42873,1086.6024 971.99583,1087.8189 1000.2828,1091.3886 C 1024.4915,1094.4436 1030.8699,1094.7328 1037.7828,1093.089 z M 1007.8962,1083.9457 C 1005.2085,1083.4953 1002.6469,1082.7607 1002.2037,1082.3134 C 1001.7605,1081.866 1002.2645,1073.4 1003.3236,1063.5 C 1004.3827,1053.6 1005.2568,1043.8686 1005.266,1041.8747 L 1005.2828,1038.2494 L 991.03283,1036.0814 C 969.52103,1032.8085 971.88883,1034.2643 972.62163,1024.762 C 972.96633,1020.2918 973.61293,1016.2699 974.05853,1015.8243 C 974.50403,1015.3787 982.19393,1015.773 991.14713,1016.7005 C 1008.8652,1018.536 1009.2331,1018.4633 1009.2675,1013.121 L 1009.2828,1010.742 L 1018.5312,1011.4655 C 1023.6178,1011.8634 1028.1178,1012.398 1028.5312,1012.6535 C 1028.9446,1012.909 1029.2828,1014.876 1029.2828,1017.0246 L 1029.2828,1020.9311 L 1034.368,1021.6057 C 1037.2547,1021.9886 1039.6829,1022.8789 1039.9845,1023.6651 C 1040.2768,1024.4267 1040.126,1028.5262 1039.6494,1032.7749 L 1038.7828,1040.5 L 1032.7211,1040.2265 L 1026.6594,1039.953 L 1024.0534,1061.4389 C 1022.62,1073.2562 1021.1587,1083.3917 1020.806,1083.9624 C 1020.0742,1085.1466 1015.0217,1085.14 1007.8962,1083.9457 z M 982.74143,1068.1203 C 975.79913,1064.9669 970.51593,1056.4783 971.43623,1049.9561 C 972.16103,1044.8194 983.91063,1046.5342 989.19003,1052.5472 C 991.71713,1055.4254 992.28283,1056.937 992.28283,1060.8123 C 992.28283,1065.6024 990.20753,1070.0191 987.97613,1069.978 C 987.31983,1069.966 984.96423,1069.13 982.74143,1068.1203 z M 931.11024,1090.25 C 928.85895,1084.7373 929.89627,1064.79 933.64539,1041.5 C 935.5932,1029.4 937.87729,1015.9313 938.72115,1011.5697 C 939.56501,1007.208 940.01171,1003.3956 939.71381,1003.0977 C 939.41591,1002.7998 933.90957,1001.5495 927.47749,1000.3193 C 921.04541,999.08919 912.6328,997.14419 908.7828,995.99709 C 904.9328,994.85009 899.3078,993.27629 896.2828,992.49979 C 882.20637,988.88659 853.62386,976.45859 834.85742,965.79139 C 729.50838,905.90899 670.27771,791.63379 679.21848,665.51342 C 684.8348,616.28332 701.67829,567.91446 728.46144,526.23447 C 760.56036,477.98015 813.83208,432.14772 860.5889,412.55835 C 891.645,399.547 949.14159,385.04844 975.78283,383.51062 C 1012.518,381.39014 1074.55,393.9481 1116.0913,412.66475 C 1196.1286,448.72595 1238.0845,499.62498 1276.3466,578.29066 C 1280.4815,586.79189 1284.3184,596.09137 1285.7581,598.54808 C 1290.5759,606.76906 1288.8735,606.45977 1331.2543,606.81367 C 1355.34,607.0148 1369.7881,606.75839 1371.5223,606.09904 C 1376.8326,604.08007 1376.3752,597.98039 1369.2806,576.20561 C 1353.1996,526.8495 1329.5703,484.2115 1295.4601,443 C 1284.2798,429.4921 1252.4445,397.37698 1240.2828,387.33762 C 1220.8801,371.32088 1203.6824,359.33528 1182.7828,347.26392 C 1103.8094,301.64987 1007.9058,285.90198 913.7828,303.09267 C 803.17975,323.29327 703.521,392.90249 645.228,490.67165 C 612.69708,545.23258 595.84474,597.99435 590.18555,663 C 588.68225,680.26806 589.5751,727.05786 591.72167,743.5 C 599.6839,804.4885 616.17222,853.02213 645.18302,900.86439 C 705.92026,1001.0274 803.2587,1068.9485 916.7828,1090.3823 C 933.57414,1093.5525 932.46313,1093.5628 931.11024,1090.25 z M 1076.5404,1086.0298 C 1192.2921,1059.2958 1289.9065,982.55239 1343.6898,876 C 1359.5242,844.62971 1371.1501,813.56602 1375.8142,790.16545 L 1376.4789,786.8309 L 1340.6308,787.54864 C 1320.9144,787.9434 1300.7815,788.54395 1295.891,788.8832 L 1286.9992,789.5 L 1279.2983,807.14044 C 1275.0628,816.84269 1269.0135,829.89269 1265.8555,836.14044 C 1231.9638,903.19029 1179.0725,952.77989 1109.7321,982.51769 C 1097.7287,987.66559 1070.8622,996.97039 1067.9495,996.98859 C 1066.9411,996.99489 1066.2779,997.33749 1066.4756,997.74999 C 1072.1399,1009.5698 1073.7077,1016.3336 1072.9776,1025.8013 C 1072.4791,1032.266 1067.3214,1063.8913 1063.4454,1084.25 C 1062.948,1086.8625 1062.8204,1088.9947 1063.1619,1088.9881 C 1063.5034,1088.9816 1069.5237,1087.6504 1076.5404,1086.0298 z M 1022.2828,953.69409 L 1030.7828,952.49999 L 1031.094,948.17379 C 1031.6825,939.99379 1025.1689,931.21629 1012.7828,923.49809 C 1008.9328,921.09899 996.33283,914.77259 984.78283,909.43939 C 948.03986,892.47349 937.36376,883.49227 937.30613,869.5 C 937.22496,849.79487 946.89249,829.76379 961.00489,820.39627 C 969.60983,814.68446 983.54023,810.28089 996.99063,809.0207 C 1015.7848,807.25985 1039.0685,809.88339 1049.2592,814.91018 C 1051.1972,815.86613 1059.5328,820.05774 1067.7828,824.22488 C 1083.8622,832.34669 1088.4178,833.98567 1094.9376,833.99442 L 1099.0925,834 L 1098.5991,829.75 C 1097.5375,820.6048 1095.0775,815.66768 1085.7685,804 C 1078.0462,794.32099 1069.7553,786.40714 1064.8494,784.03226 C 1061.0301,782.18336 1059.7683,782.04225 1054.6372,782.89032 C 1046.5987,784.21893 1042.9531,785.64324 1025.8575,794.13423 L 1011.0273,801.5 L 997.90503,801.8611 C 983.29813,802.26305 974.47333,801.07057 963.7828,797.25025 C 942.77692,789.74364 925.79454,777.26122 917.62736,763.32497 C 913.88738,756.94318 909.5409,745.95141 906.62451,735.5 C 904.54019,728.03044 904.02034,723.50893 903.56748,708.91052 C 903.0281,691.52295 903.05862,691.17858 906.22672,678.91052 C 910.40419,662.73374 910.49702,655.92796 906.64526,648.22473 C 904.23413,643.40263 901.30478,640.37142 888.06656,629 C 859.65526,604.59514 852.35481,592.76468 853.54363,573.05517 C 854.47439,557.62402 860.83416,546.59023 871.42347,542.03483 C 876.01608,540.05915 877.903,539.84142 887.21114,540.21316 C 896.53367,540.58547 898.90531,541.0806 907.2828,544.40353 C 925.05409,551.45252 953.98086,561.00341 963.89709,563.09615 C 987.79493,568.13958 1001.2828,562.8059 1001.2828,548.31228 C 1001.2828,541.48612 998.79933,536.50488 992.73453,531.16638 C 986.72793,525.87919 980.52033,522.42819 962.51428,514.36597 C 940.42866,504.47711 937.01288,502.57038 930.37651,496.42628 C 922.57237,489.20101 917.6486,479.63239 916.35724,469.18184 C 915.30244,460.64574 916.44155,450.69022 919.18186,444.49528 L 921.04882,440.27472 L 906.91581,445.03416 C 867.91053,458.16961 837.01915,476.88414 807.93244,505 C 782.3196,529.75794 763.62791,556.21546 749.39727,587.85471 C 739.71606,609.37915 731.11212,641.21721 728.24399,666.13039 C 726.65399,679.94139 727.5131,717.69695 729.74281,732 C 741.39344,806.73592 783.86437,872.79142 846.2828,913.25589 C 882.93164,937.01449 922.34481,950.70439 966.35803,954.96319 C 977.83783,956.07399 1010.641,955.32959 1022.2828,953.69409 z M 1087.7828,936.32059 C 1108.5651,927.90789 1128.2066,916.64299 1148.2828,901.62269 C 1160.6019,892.40589 1187.8845,865.13884 1196.9332,853 C 1221.1953,820.45238 1236.4039,787.75315 1244.8393,750 C 1246.2526,743.675 1247.718,738.18632 1248.0958,737.80292 C 1248.4737,737.41953 1290.6097,738.89371 1341.2827,736.031 C 1388.9995,733.33529 1464.7124,756.78539 1463.8467,694.63836 C 1463.1332,643.41548 1362.6145,660.45151 1311.0701,655.34181 L 1248.3575,654.67672 L 1247.2828,649.08836 C 1237.7086,599.30004 1218.4368,559.04212 1186.1427,521.36935 C 1151.3395,480.76956 1099.5194,449.86203 1046.4121,438.02856 L 1037.9158,436.1354 L 1033.8938,440.70458 C 1026.621,448.96694 1020.2343,449.8444 1003.5247,444.87695 C 994.75543,442.27001 991.84303,441.83078 985.90103,442.21913 C 969.25173,443.30729 958.67552,453.37084 962.12097,464.84646 C 964.69343,473.41443 974.80473,480.11281 1001.7828,491.12099 C 1022.1858,499.44628 1029.0489,503.91617 1036.4254,513.68356 C 1042.493,521.71783 1045.3589,529.46181 1046.0192,539.60756 C 1047.8712,568.06097 1027.9946,594.43398 999.28283,601.61902 C 994.27103,602.8732 989.92083,603.12281 980.28283,602.70921 C 965.39403,602.07028 960.96043,600.88782 931.81729,589.78329 C 911.39504,582.00172 896.74436,577.52483 893.83751,578.1776 C 892.62373,578.45018 892.68146,579.32158 894.2111,583.81627 C 898.39442,596.10856 917.03315,617.70728 927.65323,622.56931 C 935.66291,626.23627 939.00075,625.52219 953.902,616.95378 C 970.35383,607.49375 977.06953,605.71445 996.78283,605.59267 C 1013.0669,605.49207 1019.1064,606.7284 1032.92,612.99023 C 1050.9416,621.15958 1067.225,637.80867 1076.2649,657.30855 C 1082.2421,670.20208 1083.6297,677.19789 1083.6417,694.5 C 1083.6528,710.61095 1082.496,719.59736 1078.6913,732.95677 C 1075.8999,742.75811 1075.6438,748.86361 1077.8455,753.12131 C 1078.705,754.7834 1084.224,761.17356 1090.1098,767.32165 C 1102.3707,780.12871 1118.5626,801.19794 1123.7919,811.14933 C 1128.7097,820.50782 1130.2593,826.22433 1130.272,835.05366 C 1130.286,844.80658 1127.2209,851.42149 1120.0682,857.07539 C 1113.1517,862.54255 1106.2007,864.3809 1094.8424,863.74694 C 1084.3047,863.15877 1078.839,861.43823 1058.2828,852.23833 C 1033.1698,840.99904 1023.3773,838.39023 1009.3502,839.20224 C 995.00383,840.03274 987.26593,846.08547 986.46923,857.10009 C 985.55573,869.72782 990.58333,874.45413 1021.8706,890.38047 C 1034.5689,896.84439 1048.0689,904.46559 1051.8706,907.31649 C 1060.7149,913.94889 1068.3736,925.10539 1070.9511,935.11109 C 1073.0073,943.09289 1071.3477,942.97369 1087.7828,936.32059 z M 1725.6635,880.40735 C 1756.4971,875.55455 1784.7393,865.68406 1811.2828,850.48393 C 1834.2756,837.31712 1843.2252,835.13911 1845.0707,842.26117 C 1847.2505,850.67338 1853.0369,843.07349 1851.889,833.30606 C 1848.847,807.42374 1816.2269,744.88951 1768.7891,674 C 1713.0313,590.67726 1659.1006,528.91659 1636.8324,522.88501 C 1633.4433,521.96702 1631.7506,522.18781 1624.917,524.43922 C 1610.4554,529.20382 1576.1502,547.39345 1541.2828,568.78462 C 1521.3483,581.01445 1465.2828,618.0673 1465.2828,619.01189 C 1465.2828,619.40918 1467.1953,620.99754 1469.5328,622.5416 C 1484.6023,632.49587 1497.9173,651.36191 1503.5226,670.70159 C 1505.4792,677.45252 1505.7806,680.78344 1505.7665,695.5 C 1505.7471,715.82538 1504.0341,723.77518 1496.2855,739.5 C 1484.0785,764.27247 1460.4646,780.24217 1428.3645,785.43399 C 1423.2146,786.26692 1418.9112,787.07251 1418.8014,787.2242 C 1418.4977,787.64385 1413.2644,810.39189 1413.2742,811.25 C 1413.2883,812.48271 1423.854,812.10052 1431.575,810.588 C 1443.1636,808.31781 1443.8193,808.26763 1450.3054,809.15465 C 1462.9026,810.87743 1473.9967,818.92115 1486.6414,835.5 C 1504.3556,858.72543 1510.3236,860.03971 1537.0721,846.60584 C 1559.7186,835.23204 1567.2767,837.39714 1575.2783,857.55043 C 1579.1688,867.34937 1581.5793,871 1584.1592,871 C 1586.1252,871 1589.6565,867.41958 1597.0498,857.93007 C 1608.0394,843.82463 1617.0062,838.00098 1628.9401,837.21829 C 1634.4047,836.8599 1637.7524,837.25159 1643.0953,838.87444 C 1656.664,842.99581 1658.6027,841.7252 1658.4356,828.8203 C 1658.3197,819.86603 1657.1718,812.22851 1650.2469,774.33767 C 1644.8782,744.96158 1644.6461,743 1646.5393,743 C 1648.0013,743 1703.4301,798.48499 1708.1386,804.6618 C 1714.2272,812.64892 1715.8009,819.9986 1712.784,826.35631 C 1711.9596,828.09353 1706.6014,834.84924 1700.8769,841.36901 C 1688.7787,855.14799 1683.9632,863.56225 1683.8547,871.11221 C 1683.7942,875.31875 1684.1794,876.41294 1686.2828,878.00897 C 1687.6578,879.05232 1690.3578,880.33061 1692.2828,880.84963 C 1697.8775,882.35806 1714.684,882.13538 1725.6635,880.40735 z M 1786.0293,836.48068 C 1780.2883,834.37239 1772.3254,828.71824 1764.5867,821.25512 C 1751.8883,809.0089 1745.2828,791.40435 1745.2828,769.80792 C 1745.2828,750.62276 1748.0992,747.10632 1756.9427,755.25 C 1763.7752,761.54187 1780.7947,782.18242 1787.0004,791.7027 C 1800.5838,812.54156 1804.8353,830.27382 1797.6108,835.95667 C 1794.6329,838.29908 1791.3815,838.44618 1786.0293,836.48068 z M 1590.7332,828.5934 C 1586.5466,826.76982 1582.8627,822.11633 1580.1824,815.2656 C 1578.2249,810.26225 1577.9183,807.58299 1577.8633,795 C 1577.7924,778.8252 1579.3138,771.60301 1583.8143,766.74941 C 1587.2116,763.08563 1590.3384,762.45804 1594.7545,764.55359 C 1599.1856,766.6563 1602.2226,770.49904 1606.1918,779.0256 C 1610.4966,788.2731 1612.3836,796.08979 1613.0065,807.25502 C 1613.6651,819.06153 1611.92,825.03074 1606.9178,828.08092 C 1603.2241,830.33322 1595.3034,830.58403 1590.7332,828.5934 z M 1512.2828,813.80478 C 1504.7218,808.71082 1498.1677,793.80088 1494.6638,773.72356 C 1492.8255,763.18983 1493.2666,749.57827 1495.6271,744 C 1497.5306,739.50176 1501.0963,736.18662 1504.8309,735.44296 C 1512.1267,733.99018 1519.8542,745.2089 1524.8865,764.55946 C 1527.9264,776.24909 1529.3129,799.58284 1527.3878,806.65534 C 1525.0316,815.31137 1518.857,818.23392 1512.2828,813.80478 z M 259.23243,857.55362 C 261.10136,855.56423 261.69985,853.36929 262.4363,845.80362 C 265.68632,812.41551 276.20507,772.78664 289.80767,742.68327 C 297.40199,725.87658 302.70028,719.54751 307.17199,721.94069 C 318.73113,744.77763 302.31915,780.69539 304.36076,808.09358 C 306.44871,824.72211 312.89824,824.03056 321.55439,806.25 C 324.86962,799.44022 325.97591,798 327.8916,798 C 331.39254,798 332.33648,800.86742 333.86663,816.15058 C 334.81565,825.62932 335.94675,831.67263 337.40727,835.06769 C 342.71835,847.41363 353.19292,846.67975 359.7828,833.5 C 362.78124,827.50312 362.78284,827.49039 362.85603,809 C 362.91616,793.80791 363.23761,789.78722 364.65376,786.51365 C 368.13305,778.4709 373.47413,775.49622 379.15812,778.43552 C 385.95419,781.94991 389.61598,790.18719 391.18058,805.48033 C 392.32948,816.71024 395.77279,825.20603 402.51853,833.45484 C 408.83301,841.17628 414.37486,845.23585 427.77761,851.95788 C 441.74187,858.96153 446.8631,860.29446 448.93275,857.46405 C 450.8776,854.80431 450.62792,844.3586 448.18412,826.14306 C 444.78625,800.81622 446.39887,784.26069 452.77615,779 C 455.48723,776.7636 463.36388,777.34324 468.45949,780.15415 C 471.75991,781.97476 473.10272,783.52021 474.37369,786.96089 C 475.27806,789.40912 476.90856,792.00354 477.99703,792.72625 C 481.95576,795.35475 493.61814,796.96508 508.8227,796.98264 C 535.78465,797.01376 542.20906,793.41068 545.80086,776.2437 C 547.02813,770.37798 546.97069,768.1241 545.27424,755.57993 C 539.18112,710.5252 540.22736,664.05671 548.36534,618.28831 C 549.65735,611.02201 550.25751,603.85703 550.07083,597.92741 L 549.7828,588.77819 L 485.2828,563.01478 C 449.8078,548.8449 411.1078,533.63104 399.2828,529.2062 C 358.68855,514.01607 314.34465,500 306.88054,500 C 296.07667,500 229.7075,584.39968 151.57295,697.5 C 102.18243,768.99312 68.67641,824.65309 73.30695,827.51492 C 75.85952,829.0925 88.38427,819.62109 101.7828,805.98102 C 117.77666,789.69884 131.70287,780.25074 143.78895,777.48233 C 151.96343,775.6099 156.4263,772.91326 165.14186,764.58008 C 173.30348,756.77652 181.15261,747.00679 191.35936,731.94742 C 211.42845,702.33683 229.2828,692.87188 229.2828,711.84345 C 229.2828,723.43872 222.73906,736.94598 207.46136,756.88617 C 196.22842,771.5472 191.28438,780.44503 191.28438,786 C 191.28438,790.88567 196.00988,800.35292 204.95345,813.38515 C 230.02295,849.91546 250.64407,866.6955 259.23243,857.55362 z M 237.91371,831.48805 C 235.68235,829.25669 234.98939,822.49746 235.52869,808.22405 C 236.08039,793.62261 237.88392,786.95148 242.82505,781.23544 C 245.63947,777.97964 246.61448,777.50149 250.41844,777.51157 C 267.24549,777.55618 268.67708,791.42621 254.35387,815.64015 C 248.44058,825.6368 242.55857,833 240.48615,833 C 239.90288,833 238.74528,832.31962 237.91371,831.48805 z M 1009.4519,752.7057 C 1022.6038,746.27105 1032.2153,733.16488 1036.3701,716 C 1038.2178,708.36662 1037.9684,691.94681 1035.8868,684.18266 C 1031.1579,666.54402 1020.3008,653.15477 1006.5349,647.98513 C 994.84413,643.59481 980.18123,646.67633 970.30473,655.59914 C 958.53436,666.23298 951.83704,682.69761 951.83704,701 C 951.83704,726.73316 964.95293,748.09562 984.78283,754.66035 C 991.21813,756.79079 1003.0123,755.85627 1009.4519,752.7057 z M 885.7828,233.99407 C 836.07513,230.67471 807.43521,222.57289 793.96085,208.01897 C 785.93338,199.34835 783.81549,194.32745 783.82928,184 C 783.84175,174.65591 785.8673,168.83277 792.42741,159.28164 C 801.54029,146.01384 825.06858,128.24427 844.43547,120.00291 C 861.666,112.67067 879.19294,109.94823 913.42781,109.28643 C 963.34119,108.32154 1013.6029,114.5133 1061.2828,127.50076 C 1097.5501,137.37957 1121.8774,148.51324 1134.3633,160.94698 C 1141.915,168.46711 1144.1537,174.05195 1142.3306,180.82267 C 1136.7213,201.65374 1086.3446,219.63631 1005.9503,229.50521 C 971.92553,233.68197 913.68716,235.85746 885.7828,233.99407 z M 1035.7828,202.99023 C 1075.0524,201.61041 1098.2944,199.20492 1104.513,195.87681 C 1108.0611,193.97794 1109.5662,190.38869 1108.3543,186.71655 C 1102.6858,169.54088 1048.6456,145.56759 1001.9816,139.52752 C 989.86753,137.9595 942.36809,137.53956 928.08644,138.87421 L 921.39007,139.5 L 949.73405,152.37775 C 989.38173,170.39121 998.75863,176.07894 998.09803,181.71378 C 997.43583,187.36187 984.79503,191.01171 965.44463,191.14192 C 940.1896,191.31187 917.58708,185.10976 902.57436,173.89036 C 895.83165,168.85137 892.77822,163.40918 891.44845,154.06044 C 889.73856,142.03933 884.93213,137.68824 873.45263,137.76943 C 860.38756,137.86184 842.12742,146.98121 823.2828,162.82494 C 811.89935,172.39564 810.17156,176.33748 814.89791,181.95443 C 819.33477,187.22734 825.78587,190.94599 834.00126,192.96631 C 853.66356,197.80163 903.60532,201.77504 959.2828,202.9338 C 978.80783,203.34016 997.70783,203.74046 1001.2828,203.82335 C 1004.8578,203.90625 1020.3828,203.53134 1035.7828,202.99023 z M 768.2828,80.069779 C 760.5628,78.526929 756.63311,74.276669 757.6947,68.617909 C 758.618,63.696319 765.32809,56.633169 772.47159,53.063519 C 779.23426,49.684179 782.68093,49.303859 787.66626,51.386859 C 794.88938,54.404869 798.4838,65.176309 794.42306,71.635059 C 790.70164,77.554129 777.3126,81.874389 768.2828,80.069779 z M 1103.7264,80.093789 C 1097.5946,79.070719 1090.8306,74.674129 1088.7977,70.390239 C 1084.7793,61.921959 1091.3717,54.673979 1106.0662,51.404789 C 1122.8158,47.678339 1140.2943,52.776889 1140.2791,61.384859 C 1140.2613,71.431059 1118.5155,82.561309 1103.7264,80.093789 z M 951.07217,32.941929 C 948.52274,31.455689 947.305,25.850669 948.43451,20.801299 C 948.07688,7.2513458 974.44405,-9.8164026 978.28203,8.8150993 C 978.27993,15.990779 967.89933,30.294319 960.71003,33.027669 C 957.46128,34.262839 953.27409,34.225589 951.07217,32.941929 z"
     id="path2453"
     sodipodi:nodetypes="cssssssssssssssssssssssssscccssscccsssssssssssssssssssssssscccsssccsssscccsssccsscccssscccscccscccccsccssssccsssssssccsssssssssssssssssccsccccccsssssssccccssssssscccssscccssssssssssssssssscccssssssccsssssssccscccssssssssssssssssssssssssssssssccsssssssssssssssssssssssssssssssssccsssssccsssssssccsssssccssccssssssssssssssssssssscccssssssssssssccsssssccssssssccsssssssssccssscccssssssssssccssssccsssccccsc" />
</svg>
