<?xml version="1.0" encoding="UTF-8" standalone="no"?>
<!-- Created with Inkscape (http://www.inkscape.org/) -->
<svg
   xmlns:dc="http://purl.org/dc/elements/1.1/"
   xmlns:cc="http://creativecommons.org/ns#"
   xmlns:rdf="http://www.w3.org/1999/02/22-rdf-syntax-ns#"
   xmlns:svg="http://www.w3.org/2000/svg"
   xmlns="http://www.w3.org/2000/svg"
   xmlns:sodipodi="http://sodipodi.sourceforge.net/DTD/sodipodi-0.dtd"
   xmlns:inkscape="http://www.inkscape.org/namespaces/inkscape"
   id="svg2"
   sodipodi:version="0.32"
   inkscape:version="0.46"
   width="665"
   height="621"
   version="1.0"
   sodipodi:docname="paris2.svg"
   inkscape:output_extension="org.inkscape.output.svg.inkscape">
  <metadata
     id="metadata7">
    <rdf:RDF>
      <cc:Work
         rdf:about="">
        <dc:format>image/svg+xml</dc:format>
        <dc:type
           rdf:resource="http://purl.org/dc/dcmitype/StillImage" />
      </cc:Work>
    </rdf:RDF>
  </metadata>
  <defs
     id="defs5">
    <inkscape:perspective
       sodipodi:type="inkscape:persp3d"
       inkscape:vp_x="0 : 526.18109 : 1"
       inkscape:vp_y="0 : 1000 : 0"
       inkscape:vp_z="744.09448 : 526.18109 : 1"
       inkscape:persp3d-origin="372.04724 : 350.78739 : 1"
       id="perspective9" />
  </defs>
  <sodipodi:namedview
     inkscape:window-height="671"
     inkscape:window-width="640"
     inkscape:pageshadow="2"
     inkscape:pageopacity="0.0"
     guidetolerance="10.0"
     gridtolerance="10.0"
     objecttolerance="10.0"
     borderopacity="1.0"
     bordercolor="#666666"
     pagecolor="#ffffff"
     id="base"
     showgrid="false"
     inkscape:zoom="0.77616747"
     inkscape:cx="332.5"
     inkscape:cy="310.5"
     inkscape:window-x="354"
     inkscape:window-y="317"
     inkscape:current-layer="svg2" />
  <path
     style="fill:#000000"
     d="M 198.61618,602.27782 C 131.13823,579.14556 86.927013,547.90778 56.418655,501.80705 C 37.839359,473.73215 28.272149,444.68777 22.49049,398.80705 C 19.955627,378.69149 19.957046,325.83765 22.492905,308.88036 C 25.508525,288.71491 28.72239,283.16984 40.616183,277.61119 C 46.35247,274.9303 47.275465,274.80705 61.616183,274.80705 C 81.144498,274.80705 85.723331,275.80916 148.61618,293.84752 C 219.38072,314.14358 228.12256,316.7238 228.06599,317.29774 C 228.03837,317.57786 225.44883,319.02088 222.31145,320.50444 C 183.56875,338.82461 166.13166,376.69926 181.99996,408.06395 C 194.36837,432.51089 225.59503,442.88312 256.11556,432.68214 C 264.51464,429.87488 276.44855,422.86103 282.86619,416.96013 C 285.24172,414.77587 287.1138,413.65982 287.11077,414.42969 C 287.05758,427.95098 264.49135,538.07423 257.42281,559.30705 C 252.63094,573.70107 244.65236,588.66071 237.94072,595.83548 C 230.79378,603.47557 225.93599,606.28708 218.73859,606.94895 C 214.44324,607.34394 211.19432,606.58975 198.61618,602.27782 z M 415.55079,603.92881 C 403.68662,598.40427 394.41696,585.42033 385.83563,562.30705 C 377.9387,541.03714 351.55293,412.30705 355.09017,412.30705 C 355.44868,412.30705 357.0637,413.71808 358.6791,415.44268 C 365.59199,422.82288 379.50497,430.2948 393.10144,433.92909 C 400.65212,435.94737 417.0748,435.89078 425.07029,433.81894 C 453.20825,426.52767 469.57472,401.76057 464.75169,373.76977 C 462.38769,360.05008 456.08451,348.1312 445.70935,337.762 C 437.75138,329.8086 425.02767,321.21252 416.82032,318.2447 C 414.78377,317.50828 413.4547,316.59486 413.86684,316.21489 C 415.61197,314.60599 538.3529,279.58811 554.04736,276.22151 C 566.36872,273.57847 586.35217,272.60234 593.95815,274.27199 C 605.72637,276.85533 613.30408,283.20957 616.55093,293.21702 C 620.51699,305.44123 622.84804,345.55548 621.17593,372.80705 C 617.8198,427.5044 608.31636,464.05686 589.59694,494.26718 C 562.5769,537.87348 521.72995,570.64803 467.14313,592.521 C 450.9726,599.00054 428.44936,606.29311 424.61619,606.29037 C 422.41619,606.2888 418.33676,605.2261 415.55079,603.92881 z M 374.52336,257.7429 C 374.91462,256.12818 375.48522,249.61254 375.79135,243.26369 C 376.51953,228.16232 374.71132,219.03559 368.46942,206.30705 C 357.06894,183.05905 334.39547,169.70757 311.83554,172.95765 C 288.83821,176.27075 268.8538,195.95076 262.73827,221.30705 C 260.65093,229.96163 259.74939,245.3251 260.87517,253.05705 C 261.37567,256.49455 261.62312,259.30705 261.42507,259.30705 C 261.02501,259.30705 217.36601,218.73349 184.11618,187.4617 C 153.27777,158.45787 141.14722,144.37924 134.55603,129.94252 C 129.67976,119.26201 129.79668,107.06817 134.84421,99.886413 C 142.93754,88.371013 178.54114,64.119703 211.78784,47.476453 C 257.14975,24.768333 295.13596,14.899063 330.11619,16.733323 C 363.8671,18.503133 390.16824,25.342733 420.61619,40.267823 C 437.50219,48.545063 448.51546,55.126123 464.11619,66.261563 C 476.45722,75.070313 499.62863,94.418533 503.16265,98.865513 C 512.79068,110.98081 506.90371,131.81361 486.78942,156.80705 C 474.60997,171.94089 407.12481,234.50671 379.96373,255.84566 C 373.81938,260.67294 373.81284,260.67522 374.52336,257.7429 z"
     id="path2384" />
</svg>
