<?xml version="1.0" encoding="UTF-8" standalone="no"?>
<!-- Created with Inkscape (http://www.inkscape.org/) -->
<svg
   xmlns:dc="http://purl.org/dc/elements/1.1/"
   xmlns:cc="http://creativecommons.org/ns#"
   xmlns:rdf="http://www.w3.org/1999/02/22-rdf-syntax-ns#"
   xmlns:svg="http://www.w3.org/2000/svg"
   xmlns="http://www.w3.org/2000/svg"
   xmlns:sodipodi="http://sodipodi.sourceforge.net/DTD/sodipodi-0.dtd"
   xmlns:inkscape="http://www.inkscape.org/namespaces/inkscape"
   id="svg2"
   sodipodi:version="0.32"
   inkscape:version="0.46"
   width="431"
   height="716"
   version="1.0"
   sodipodi:docname="shino.svg"
   inkscape:output_extension="org.inkscape.output.svg.inkscape">
  <metadata
     id="metadata7">
    <rdf:RDF>
      <cc:Work
         rdf:about="">
        <dc:format>image/svg+xml</dc:format>
        <dc:type
           rdf:resource="http://purl.org/dc/dcmitype/StillImage" />
      </cc:Work>
    </rdf:RDF>
  </metadata>
  <defs
     id="defs5">
    <inkscape:perspective
       sodipodi:type="inkscape:persp3d"
       inkscape:vp_x="0 : 526.18109 : 1"
       inkscape:vp_y="0 : 1000 : 0"
       inkscape:vp_z="744.09448 : 526.18109 : 1"
       inkscape:persp3d-origin="372.04724 : 350.78739 : 1"
       id="perspective9" />
  </defs>
  <sodipodi:namedview
     inkscape:window-height="1178"
     inkscape:window-width="1600"
     inkscape:pageshadow="2"
     inkscape:pageopacity="0.0"
     guidetolerance="10.0"
     gridtolerance="10.0"
     objecttolerance="10.0"
     borderopacity="1.0"
     bordercolor="#666666"
     pagecolor="#ffffff"
     id="base"
     showgrid="false"
     showguides="true"
     inkscape:guide-bbox="true"
     inkscape:zoom="7.6162116"
     inkscape:cx="86.628876"
     inkscape:cy="436.8006"
     inkscape:window-x="-1"
     inkscape:window-y="0"
     inkscape:current-layer="svg2">
    <sodipodi:guide
       orientation="1,0"
       position="-218.36515,721.94191"
       id="guide2386" />
  </sodipodi:namedview>
  <path
     style="fill:#000000"
     d="M 214.22441,689.2858 C 207.12509,676.82256 200.39059,664.21185 194.53407,651.10733 C 194.07309,649.65491 194.73236,648.36289 196.93665,646.39886 C 198.60749,644.91013 201.10527,641.42301 202.48727,638.6497 L 205,633.60731 L 204.9985,600.55366 L 204.997,567.5 L 198.9985,561.16 C 187.38143,551.06541 178.53325,538.28945 169.35723,526.08814 C 165.97081,519.69411 161.02217,512.94839 158.66073,505.81631 C 156.73694,498.24515 155.61832,490.35368 155.29165,482.54971 C 155.34167,473.01172 157.42188,463.27246 158.10004,461.071 C 165.51553,439.60628 177.91089,420.00988 197,405.98854 C 203.99092,401.1265 203.58841,403.42259 202.92159,372.2086 C 202.58918,356.64834 201.90834,343.55083 201.4086,343.10303 C 200.90887,342.65523 189.8125,342.50551 176.75,342.77031 C 151.33452,343.28553 150.92228,343.38651 154.75,348.15914 C 157.78618,351.94483 160.35736,354.13079 165.25212,357.0878 C 171.71747,360.99363 173.99157,364.98625 173.99626,372.4398 C 174.004,384.73719 169.96894,401.83687 165.42804,408.75 C 162.02702,413.92777 161.91053,414 156.96127,414 C 151.49757,414 142.92286,410.26473 137.59446,405.56353 C 131.17521,400.62733 124.47627,396.177 119.59502,389.57193 C 116.01168,383.45741 116.08968,378.75408 120.03571,363 C 122.06028,354.91715 122.28431,350.90372 120.86471,348.14859 C 118.16624,342.91148 118.62774,343 94.02381,343 L 91.449689,343 C 76.055178,343.29229 74.073129,339.44238 63.789041,350.20837 C 62.098294,352.03435 60.715089,353.68669 60.323526,354.38638 C 59.349702,356.12651 59.11223,356.09989 55.400174,353.83466 C 53.255078,352.52564 50.15,350.79055 48.5,349.97891 C 46.85,349.16726 45.275,348.26584 45,347.97576 C 44.725,347.68567 40.45,345.45757 35.5,343.02442 C 30.55,340.59127 23.64631,336.95037 20.158466,334.93353 L 13.816931,331.26654 L 16.658466,329.29835 C 20.579423,326.58248 56.782706,308 58.152927,308 C 58.763554,308 61.211787,309.94863 63.593445,312.33029 C 69.957203,318.69405 72.711526,319.22316 95.28839,318.41897 C 107.61644,317.97984 114.76324,317.33431 115.23469,316.61732 C 115.63877,316.0028 115.9768,313.475 115.98587,311 C 116.0071,305.20776 119.48377,288.52868 121.73253,281.83231 C 124.81646,273.94647 128.61042,266.39283 133.92213,259.71489 C 136.38193,257.14779 138.68836,253.85541 141.12378,251.24724 C 144.40296,247.73546 147.84052,244.93578 151.48673,241.81619 C 157.04952,237.20373 163.71468,234.24023 169.97461,230.67837 C 176.48967,227.32832 183.2463,224.2989 190.34299,222.39635 C 192.51096,221.86377 194.871,221.27909 196.5,220.87004 L 201,219.74008 L 201,201.89128 L 201,184.04249 L 196,177.18965 C 193.25,173.42058 190.99716,169.92352 190.99369,169.4184 C 190.98464,168.10217 212.3001,125 212.96007,125 C 213.26236,125 218.53847,135.07924 224.68475,147.39831 L 235.85981,169.79662 L 232.69564,174.14831 C 232.01053,175.75876 230.37599,177.79274 229.20539,179.06695 C 227.79914,180.87443 227.27098,182.10986 225.97554,184.03435 C 224.1064,186.65932 223.97214,188.16437 224.22554,203.65226 L 224.5,220.42709 L 228,221.34409 C 237.63835,223.86935 253.00342,229.40892 257,231.79948 C 259.475,233.27991 262.625,235.0151 264,235.65546 C 265.375,236.29583 267.85,237.95082 269.5,239.33323 C 274.98763,243.24909 279.49031,247.78335 283.7844,252.8827 C 284.76582,253.77222 287.33847,256.975 289.5014,260 C 290.87126,261.91584 292.20379,263.70131 293.09001,264.82295 C 297.17071,271.16812 300.30319,278.45649 303.10819,285.5 C 303.70749,287.15 304.57554,290.525 305.0372,293 C 305.49885,295.475 306.10317,298.625 306.38012,300 C 306.65708,301.375 307.4235,305.9875 308.08329,310.25 L 309.28292,318 L 319.39146,317.95671 C 324.95116,317.93289 335.38058,317.53384 342.56794,317.06991 C 356.86866,316.14683 361.53965,314.59702 367.72084,308.7243 L 370.94168,305.66419 L 382.72084,311.67704 C 409.92277,325.56265 415.04089,328.37733 414.73839,329.28484 C 414.33938,330.48186 410.8843,332.40444 388.67384,343.78852 L 370.84769,352.92541 L 366.96344,348.9627 C 366.37197,348.20078 365.71642,347.58451 365.01525,347.06721 C 354.00903,339.6184 341.64391,341.16122 328.86614,341.5247 L 305.11192,342.25088 L 304.05596,347.17466 C 303.28689,355.77403 299.36896,362.95314 294.81566,370.19513 C 288.81968,381.6093 279.84057,390.07151 269.66833,398.41715 C 258.15972,407.22497 243.40165,416.66274 230.45624,423.31948 L 226.91247,425.00938 L 227.59797,485.25469 C 228.24041,541.71551 228.40021,545.66674 230.14174,548.15437 C 235.85224,556.96774 240.80994,566.07404 244.6911,575.86185 C 248.03671,584.42599 247.20612,594.18445 246.14903,603.21118 C 245.05263,612.37939 240.5488,620.10474 235.91014,627.79617 C 234.80656,630.02196 233.2142,631.98254 231.86373,634.03496 C 231.6749,634.5004 231.48485,635.04567 231.31052,635.36484 C 229.74618,638.22893 233.63989,644.70346 237.75,646.07253 C 240.24113,646.90233 241,647.72883 241,649.61218 C 236.79849,662.46809 229.1014,673.63109 222.88222,685.5 C 220.89243,689.35 218.61762,692.62861 217.82707,692.7858 C 217.03362,692.94357 215.41969,691.37562 214.22441,689.2858 z M 203.54095,484.25 C 203.13787,467.3375 202.59548,453.28172 202.33564,453.01494 C 201.70247,452.36484 198.30735,456.77453 196.57271,460.5 C 190.58856,473.35214 189.66672,482.06148 192.98135,494.43039 C 195.89297,505.29546 200.69018,515 203.14945,515 C 203.97345,515 204.07804,506.78536 203.54095,484.25 z M 240.30551,381.51619 C 245.9542,379.04816 267.13141,357.4328 269.10265,352.12324 C 269.4341,351.23046 270.0004,348.59703 270.36108,346.27117 C 270.95385,342.44868 270.79985,341.98904 268.75843,341.48771 C 267.51629,341.18267 257.5,341.06064 246.5,341.21654 L 226.5,341.5 L 226.22987,363.47634 C 226.08129,375.56333 226.18266,386.03362 226.45513,386.74366 C 226.82842,387.71644 228.12738,387.43623 231.72526,385.60677 C 234.35137,384.27144 238.21248,382.43068 240.30551,381.51619 z M 202.30184,316.65581 C 202.58553,315.91651 202.87721,303.31651 202.95,288.65581 L 203.08235,262 L 198.08823,262 C 195.34146,262 191.83543,262.51324 190.29705,263.14053 C 182.29264,266.40443 180.1686,267.42841 176.5,269.79196 C 169.71109,274.16583 159.432,285.82013 155.19964,293.94205 C 151.85874,300.35325 151.17024,302.75175 150.66188,309.75 L 150.0626,318 L 175.92431,318 C 196.65769,318 201.88831,317.73345 202.30184,316.65581 z M 272.23985,312.57372 C 271.842,305.04016 268.18804,294.05362 264.24624,288.53901 C 261.04094,284.05477 249.36253,272.34199 245.17201,269.40865 C 240.10544,265.86208 233.515,262.89526 229.4724,262.34116 L 224.88305,261.71212 L 225.3753,277.60606 C 225.64604,286.34773 225.89735,299.02079 225.93378,305.76843 L 226,318.03686 L 249.25,317.76843 L 272.5,317.5 L 272.23985,312.57372 z M 149.5,135.54528 C 138.97825,133.4123 131.73684,130.91502 127.3786,127.91647 L 123.13965,125 L 104.40772,125 C 89.440391,125 84.55277,124.65121 80.087892,123.26447 C 73.615902,121.06946 67.619064,118.13189 64.416446,111.69908 C 63.499175,108.75866 62.198529,108.03352 57.809017,108.01531 C 54.640942,107.89728 51.90045,106.3581 49,105.24411 C 44.072228,101.7505 40.145521,98.199068 39,91.77356 C 39,89.599188 38.344529,89.175293 33.25,88.055019 C 30.0875,87.359593 26.380479,86.275222 25.012175,85.645304 C 18.080765,81.960195 14.511764,75.604804 11.635657,68.75 L 10.961896,66 L 65.359628,66 L 119.75736,66 L 120.73918,68.75 C 121.27918,70.2625 122.27739,73.3 122.95741,75.5 C 124.99102,82.079044 133.43474,98.213605 137.08735,102.5 C 143.03031,109.47415 159.19639,125 160.51516,125 C 160.82782,125 162.03608,125.88735 163.20019,126.97188 C 165.41818,129.03825 177.10446,135 178.93699,135 C 179.52165,135 180,135.45 180,136 C 180,137.40276 156.96898,137.05939 149.5,135.54528 z M 247.55445,136.1313 L 244.60891,135.49922 L 247.35151,134.24961 C 265.79725,128.56233 277.88335,113.3357 289.42832,98.688832 C 296.52899,87.753415 303,74.050773 303,69.950217 C 303,63.753559 300.62843,64 360.2606,64 L 414.66405,64 L 411.2771,70.75 C 406.32156,80.626117 400.03728,85.840408 391.86381,86.857906 C 386.72447,87.497692 386.70096,87.517075 385.3227,92.25 C 384.38971,95.664467 382.37515,98.439982 379.73393,100.75431 C 376.25717,103.7971 373.03717,105.77127 368.49644,106.45718 C 364.27377,106.98477 362.72729,107.65162 361.85174,109.3224 C 358.38321,115.94135 354.95388,118.84782 348.22601,120.8707 C 335.545,125.54182 324.46839,123.97621 311.56871,123.60668 C 310.02534,123.66113 306.73599,123.38906 305.89673,123.53195 C 303.52694,123.93544 303.2447,124.65583 299.93224,126.8485 C 298.84096,127.86518 296.04728,129.27546 293.72405,129.98245 C 291.40082,130.68944 287.025,132.07525 284,133.06203 C 273.55793,136.46833 256.01131,137.94602 247.55445,136.1313 z M 145,53 C 145,36.5 145.30119,23 145.66931,23 C 146.03743,23 149.33624,26.15 153,30 C 157.91596,35.376554 163.51694,40.03619 170.16519,43.094174 C 181.0723,47.149961 191.75991,43.365595 204.19674,31.043976 C 207.552,27.719789 210.85976,25 211.54731,25 C 212.23486,25 215.09526,27.25 217.90375,30 C 234.7455,45.521392 251.98839,49.979313 268.85552,32.410042 C 270.70534,30.026134 272.76224,27.873029 274.78597,25.615141 L 277,22.730283 L 277,34.704834 C 277,41.290838 277.29601,54.851524 277.65781,64.839693 L 278.31561,83 L 211.65781,83 L 145,83 L 145,53 z"
     id="path2384"
     sodipodi:nodetypes="ccsccccccccccssssssssccsscccssssscccsssssccsccccccccssccccccccssccsccsscccscccscccccccccccccccccssccsccssssccssscccsscccccssscccccsscccccccccccccccccsccccccsssssscccccscccscccsccscssccsccsscccccccccc" />
</svg>
