<?xml version="1.0" encoding="UTF-8" standalone="no"?>
<!-- Created with Inkscape (http://www.inkscape.org/) -->
<svg
   xmlns:dc="http://purl.org/dc/elements/1.1/"
   xmlns:cc="http://creativecommons.org/ns#"
   xmlns:rdf="http://www.w3.org/1999/02/22-rdf-syntax-ns#"
   xmlns:svg="http://www.w3.org/2000/svg"
   xmlns="http://www.w3.org/2000/svg"
   xmlns:sodipodi="http://sodipodi.sourceforge.net/DTD/sodipodi-0.dtd"
   xmlns:inkscape="http://www.inkscape.org/namespaces/inkscape"
   id="svg2"
   sodipodi:version="0.32"
   inkscape:version="0.46"
   width="3396"
   height="2900"
   version="1.0"
   sodipodi:docname="paris1.svg"
   inkscape:output_extension="org.inkscape.output.svg.inkscape">
  <metadata
     id="metadata7">
    <rdf:RDF>
      <cc:Work
         rdf:about="">
        <dc:format>image/svg+xml</dc:format>
        <dc:type
           rdf:resource="http://purl.org/dc/dcmitype/StillImage" />
      </cc:Work>
    </rdf:RDF>
  </metadata>
  <defs
     id="defs5">
    <inkscape:perspective
       sodipodi:type="inkscape:persp3d"
       inkscape:vp_x="0 : 526.18109 : 1"
       inkscape:vp_y="0 : 1000 : 0"
       inkscape:vp_z="744.09448 : 526.18109 : 1"
       inkscape:persp3d-origin="372.04724 : 350.78739 : 1"
       id="perspective9" />
  </defs>
  <sodipodi:namedview
     inkscape:window-height="671"
     inkscape:window-width="640"
     inkscape:pageshadow="2"
     inkscape:pageopacity="0.0"
     guidetolerance="10.0"
     gridtolerance="10.0"
     objecttolerance="10.0"
     borderopacity="1.0"
     bordercolor="#666666"
     pagecolor="#ffffff"
     id="base"
     showgrid="false"
     inkscape:zoom="0.1174347"
     inkscape:cx="1492.0963"
     inkscape:cy="1450.5374"
     inkscape:window-x="273"
     inkscape:window-y="67"
     inkscape:current-layer="svg2" />
  <path
     style="fill:#000000"
     d="M 1131.9999,2903.4909 C 1129.5249,2903.2898 1121.1999,2902.6433 1113.4999,2902.0541 C 1047.9879,2897.0408 984.83362,2880.5429 933.88792,2855.1338 C 895.53612,2836.0058 865.86762,2814.6667 829.50002,2780.0525 C 824.55002,2775.3412 807.45632,2759.3586 791.51392,2744.5358 C 721.85722,2679.7702 655.00222,2614.7499 519.00002,2479.4999 C 385.23142,2346.4712 362.25072,2324.8228 322.00002,2293.9211 C 296.35602,2274.2335 239.70872,2240.5071 182.00002,2210.5686 C 166.32502,2202.4366 148.55002,2192.8437 142.50002,2189.2511 C 124.64162,2178.6462 113.82472,2166.289 110.01482,2152.1401 C 109.29512,2149.4673 108.86822,2140.8722 108.92522,2130.2019 C 109.07932,2101.3409 108.10742,2099.9008 78.500016,2085.1252 C 56.075616,2073.9343 47.480616,2067.6326 38.443716,2055.7566 C 29.712716,2044.2827 27.555316,2039.0598 27.156816,2028.4321 C 26.455316,2009.727 33.652916,1989.1619 48.821216,1966.5318 C 74.760716,1927.8319 111.55532,1906.1264 142.94622,1911.0065 C 157.08052,1913.2039 168.83262,1919.3831 181.44102,1931.247 C 195.89802,1944.8502 197.81012,1952.3478 191.55732,1970.9148 C 189.66392,1976.5373 187.82082,1983.0971 187.46172,1985.492 C 186.20112,1993.8983 190.73812,2007.9016 197.94612,2017.852 C 201.72522,2023.0689 204.14742,2023.2669 209.96912,2018.8351 C 217.38062,2013.193 221.39492,2011.1185 224.93432,2011.1016 C 230.72292,2011.0738 236.57332,2014.7142 242.77352,2022.2019 C 256.79972,2039.1406 270.06492,2066.1872 292.95872,2124.5253 C 305.04572,2155.3255 315.04292,2174.5299 332.29302,2200.0851 C 371.48742,2258.1499 435.60482,2325.7508 523.50002,2401.6802 C 607.70322,2474.4203 712.65732,2553.5582 822.09662,2626.8294 L 832.69322,2633.924 L 833.31492,2614.7546 C 835.40402,2550.3318 850.49102,2492.0325 880.45782,2432.5851 C 916.81322,2360.4639 970.57012,2298.4743 1045.9999,2241.6906 C 1170.6787,2147.8322 1343.3492,2078.4542 1550,2039.1861 C 1654.2094,2019.3841 1757.2262,2009.0552 1876.1931,2006.4807 L 1904.8863,2005.8597 L 1907.0364,1996.7224 C 1908.219,1991.6969 1909.98,1983.9644 1910.9497,1979.5391 L 1912.7129,1971.4931 L 1890.1065,1964.6383 C 1835.1302,1947.9681 1757.205,1921.1668 1701.3083,1899.7037 C 1550.2667,1841.7069 1402.9778,1768.0827 1274.9999,1686.6079 C 1249.746,1670.5305 1206.523,1641.3748 1183.254,1624.7216 C 1170.4533,1615.5604 1163.4207,1611.1219 1162.254,1611.468 C 1158.3653,1612.6213 1126.2935,1616.1675 1107.4999,1617.5222 C 1083.5617,1619.2477 1043.2411,1620.6023 1044.1389,1619.6509 C 1044.4904,1619.2785 1055.2904,1617.2392 1068.1389,1615.1192 C 1099.1766,1609.998 1147.6822,1600.7361 1148.6775,1599.7408 C 1148.8382,1599.5801 1145.939,1597.231 1142.2348,1594.5206 C 1130.6501,1586.0438 1099.2139,1561.3608 1081.9999,1547.2255 C 1011.3124,1489.1801 942.57932,1422.8846 886.94222,1359.0851 C 753.21022,1205.7336 664.75902,1040.6923 624.60272,869.5851 C 588.25502,714.70679 592.99182,554.77838 638.49372,400.5851 C 643.65192,383.10542 655.36562,348.0851 656.05402,348.0851 C 656.37892,348.0851 659.46252,360.3476 662.90672,375.3351 C 715.55482,604.4396 773.28482,786.89863 846.08662,954.28574 C 871.95942,1013.773 908.53612,1087.1018 940.75922,1144.0851 C 1004.0738,1256.0507 1078.2244,1360.1377 1158.3946,1449.5851 C 1188.0539,1482.6765 1254.8037,1550.5962 1269.5047,1562.6426 L 1274.1495,1566.4486 L 1282.8247,1563.6473 C 1361.0205,1538.3975 1459.5953,1490.4136 1540.5,1438.2171 C 1608.3477,1394.4444 1666.698,1347.9519 1721.3653,1294.1066 C 1776.0944,1240.2004 1817.3296,1190.6919 1857.9736,1130.0894 C 1865.6881,1118.5866 1872,1108.6732 1872,1108.0597 C 1872,1107.4461 1868.6847,1098.9883 1864.6327,1089.2646 C 1819.0698,979.92568 1757.6341,884.7186 1679.8016,802.83147 C 1633.8894,754.52742 1594.9845,734.17509 1535,727.08138 C 1520.3246,725.34588 1485.7388,724.28367 1462.3635,724.85053 C 1348.2264,727.61843 1205.9083,689.66242 1056.2218,616.5332 C 885.87772,533.31177 740.68922,420.68341 708.23342,346.5851 C 703.37392,335.49068 701.63982,328.53587 701.61072,320.02427 C 701.59242,314.67584 702.08702,312.61233 704.28732,308.85773 C 714.89992,290.74885 749.59662,277.88325 805.00002,271.51333 C 823.62952,269.37143 883.45072,268.49633 908.25172,270.00291 C 1113.0089,282.44124 1328.6765,362.65712 1499.4999,489.91315 C 1645.3545,598.56843 1760.3431,739.66077 1840.7125,908.5851 C 1860.0564,949.24294 1876.1926,988.38563 1892.5571,1034.3482 C 1897.4063,1047.9679 1901.701,1058.7679 1902.1009,1058.3482 C 1902.5007,1057.9285 1908.0325,1047.6851 1914.3938,1035.5851 C 1978.8652,912.95108 2019.2688,773.90952 2033.9701,624.0851 C 2038.0484,582.52162 2039.1648,559.93363 2039.7112,507.92403 C 2040.3936,442.97545 2038.75,402.6202 2032.9366,341.5851 C 2024.523,253.25186 2007.0363,153.09702 1983.8964,60.708125 C 1981.1582,49.775825 1979.0489,40.447425 1979.209,39.978425 C 1979.369,39.509325 1984.225,42.318925 1990,46.221925 C 2027.3097,71.437325 2058.0113,103.83062 2084.0417,145.44522 C 2144.9593,242.83361 2176.0026,391.0349 2170.9999,560.5851 C 2167.0677,693.85519 2144.1652,823.64056 2105.1786,933.5851 C 2074.1592,1021.0616 2036.1433,1081.4745 1958.75,1166.2823 C 1947.3375,1178.7882 1938,1189.6348 1938,1190.386 C 1938,1191.1372 1939.6073,1198.9142 1941.5718,1207.6684 C 1949.5953,1243.4229 1961.1653,1306.7481 1968.4145,1354.5851 C 1973.4977,1388.1291 1982,1455.1065 1982,1461.6064 C 1982,1462.5541 1986.4382,1463.0238 1999.75,1463.4846 C 2009.5125,1463.8225 2030.775,1464.7984 2047,1465.6533 C 2398.6922,1484.1832 2647.5767,1598.769 2758.1937,1793.0851 C 2778.3065,1828.4165 2795.7726,1872.4698 2805.0409,1911.2439 C 2807.7373,1922.5245 2806.0553,1922.2678 2822.5,1913.9081 C 2906.4361,1871.2389 3054.2108,1713.4203 3142.7601,1571.8807 C 3169.4407,1529.2337 3191.7129,1485.1618 3204.3108,1450.0851 C 3212.3269,1427.7657 3216.9443,1406.8753 3217.6832,1389.5851 C 3218.6334,1367.3504 3225.4595,1352.5855 3238.9235,1343.6425 C 3246.4712,1338.6292 3253.6585,1336.6956 3264.5,1336.762 C 3276.791,1336.8372 3287.8815,1339.8244 3302.5,1346.997 C 3328.9658,1359.9826 3351.4181,1380.799 3365.6925,1405.5851 C 3374.7756,1421.3571 3378.6002,1436.1053 3377.7223,1451.9747 C 3376.8446,1467.8424 3371.0453,1480.3563 3359.2181,1491.9033 C 3347.6018,1503.2444 3334.1572,1506.3294 3314.5,1502.1641 C 3290.8432,1497.1514 3289.039,1496.911 3283.6876,1498.0587 C 3277.3995,1499.4072 3269.9482,1504.8532 3264.3493,1512.1928 C 3257.316,1521.4126 3256.5292,1523.5607 3256.5138,1533.5851 C 3256.5012,1541.7799 3256.7932,1543.1667 3259.7773,1549.0851 C 3261.5799,1552.6601 3265.7581,1558.7351 3269.0622,1562.5851 C 3284.658,1580.7574 3286,1582.5342 3286,1585.011 C 3286,1589.1 3275.6406,1597.9868 3250.4216,1615.5317 C 3172.11,1670.0134 3125.5259,1708.6837 3062.4323,1771.5851 C 2991.3045,1842.4962 2942.3718,1901.5195 2863.0484,2012.0851 C 2840.7674,2043.1416 2826.4505,2061.5724 2805.6448,2085.9829 C 2696.4559,2214.0901 2566.7482,2304.6295 2436.7956,2343.4493 C 2407.5677,2352.1803 2375.3385,2359.2071 2349.5,2362.4818 C 2321.9963,2365.9676 2311.6309,2366.5684 2279,2366.5684 C 2240.3887,2366.5684 2222.7211,2365.1248 2186.5,2359.0103 C 2172.8689,2356.7092 2147.1521,2351.1904 2145.2053,2350.1485 C 2144.4236,2349.7301 2148.1878,2347.5478 2154.7053,2344.6408 C 2214.8925,2317.7955 2274.5829,2264.8451 2321.6287,2196.5658 C 2350.4184,2154.7822 2373.9467,2107.0993 2389.4661,2059.0851 C 2428.1402,1939.4346 2416.0027,1824.7335 2355.0901,1734.2271 C 2337.5891,1708.2233 2305.8743,1674.2078 2280,1653.6894 C 2255.9542,1634.6211 2225.106,1615.145 2195.5,1600.34 C 2165.3756,1585.2759 2122.2486,1568.1908 2105.5,1564.6859 C 2083.4328,1560.068 2020.2555,1550.1716 1996.0942,1547.5481 L 1989.6885,1546.8526 L 1990.3602,1556.4089 C 1994.4078,1613.9902 1996.3483,1699.6936 1995.0036,1761.4889 C 1993.4302,1833.7959 1990.6504,1882.3431 1984.4394,1945.9821 C 1983.0762,1959.9505 1982.0821,1971.4765 1982.2304,1971.5953 C 1982.3787,1971.7142 1992.85,1975.2185 2005.5,1979.3826 C 2079.3394,2003.6891 2150.6718,2024.1865 2180.5,2029.669 C 2216.7337,2036.3287 2254.263,2044.9597 2284.5,2053.5867 C 2302.3711,2058.6856 2344.0985,2072.5211 2347.985,2074.6363 C 2351.5467,2076.5747 2349.5769,2076.399 2341.4968,2074.0576 C 2246.7987,2046.617 2126.0057,2033.5581 2008.79,2038.0887 C 1990.2741,2038.8044 1974.7248,2039.6589 1974.2359,2039.9875 C 1973.7471,2040.3162 1972.5743,2046.2101 1971.6298,2053.0851 C 1958.4865,2148.7563 1932.5883,2267.736 1904.4792,2361.5851 C 1887.2318,2419.1696 1879.5683,2438.9892 1863.0113,2468.8316 C 1825.9563,2535.6198 1784.6471,2573.0851 1748.0618,2573.0851 C 1741.4606,2573.0851 1739.5129,2572.6358 1733.4718,2569.7192 C 1679.468,2543.6468 1687.0628,2480.2876 1758.8403,2358.0851 C 1768.8034,2341.1228 1786.4571,2312.8744 1796.1106,2298.4474 C 1819.151,2264.0139 1832.9989,2235.7124 1852.816,2182.5559 C 1864.1492,2152.1564 1881.3287,2097.2613 1892.317,2056.3351 L 1894.8006,2047.0851 L 1892.1503,2047.0852 C 1888.4074,2047.0854 1862.1456,2050.4877 1838,2054.1005 C 1759.7309,2065.8117 1674.1449,2085.2199 1597.0251,2108.7459 C 1573.7472,2115.8471 1561.9255,2121.1786 1532.6905,2137.7606 C 1446.952,2186.3913 1371.9907,2251.5116 1319.9356,2322.5851 C 1279.8463,2377.3211 1255.4521,2431.8893 1245.9503,2488.0851 C 1242.914,2506.0429 1242.1712,2539.7963 1244.41,2558.0851 C 1248.1306,2588.479 1257.6678,2618.8221 1271.7551,2645.0851 C 1277.7829,2656.3227 1293.1335,2679.4695 1301.5984,2690.0851 C 1309.9397,2700.5456 1339.4824,2730.2362 1350.9999,2739.7339 C 1371.8568,2756.9331 1395.6667,2773.4615 1420.4904,2787.9727 C 1446.5616,2803.2132 1490.1452,2824.237 1519.25,2835.6121 C 1524.6125,2837.7079 1529,2839.712 1529,2840.0656 C 1529,2840.4192 1516.7374,2844.3664 1501.7499,2848.8372 C 1402.7798,2878.3601 1325.3984,2893.8988 1238.4999,2901.6996 C 1222.6902,2903.1188 1143.7643,2904.4463 1131.9999,2903.4909 z M 1232.2253,2771.3351 C 1226.5278,2764.5026 1216.8039,2749.3928 1210.5729,2737.6901 C 1192.2254,2703.2307 1179.8763,2662.0253 1173.2963,2613.3092 C 1170.7692,2594.5989 1170.7688,2535.0815 1173.2957,2516.0851 C 1181.1131,2457.316 1197.848,2406.3329 1224.83,2359.0851 C 1245.0217,2323.7278 1267.7021,2293.8332 1297.7509,2262.9698 C 1320.7355,2239.3621 1351.7452,2213.0066 1376.9999,2195.6154 C 1388.1428,2187.942 1388.4951,2187.5528 1381.9999,2190.0932 C 1360.2855,2198.5859 1334.7773,2211.3097 1311.9999,2225.0102 C 1227.3323,2275.9375 1144.8489,2355.5551 1092.2917,2437.0851 C 1041.6598,2515.6285 1021.7609,2588.3993 1035.4921,2644.802 C 1051.4155,2710.2101 1108.6233,2752.8511 1205.4999,2771.5209 C 1220.2085,2774.3555 1229.183,2775.7877 1233.343,2775.9644 L 1236.1861,2776.0851 L 1232.2253,2771.3351 z M 2310.2026,2281.7259 C 2461.3143,2223.5188 2561.5782,2158.7598 2607.6867,2089.5851 C 2617.8411,2074.3509 2618.798,2072.0091 2620.4591,2058.3281 C 2627.274,2002.1979 2623.0086,1945.2349 2608.4227,1897.5851 C 2597.7145,1862.6033 2579.9561,1827.5774 2558.0091,1798.1517 C 2523.6874,1752.1345 2477.2326,1712.1316 2417.5,1677.1574 C 2401.3225,1667.6853 2361.1576,1647.2847 2339.4425,1637.5102 C 2323.6594,1630.406 2290.8277,1616.9241 2290.3859,1617.3659 C 2290.2425,1617.5093 2294.4524,1620.9923 2299.7413,1625.1059 C 2400.5044,1703.4772 2466.3355,1824.5197 2469.6921,1937.5919 C 2470.3605,1960.1093 2469.2046,1976.5655 2465.3726,1999.0851 C 2454.7236,2061.6659 2426.8902,2128.6946 2388.1369,2185.0851 C 2362.8634,2221.861 2325.9996,2260.6096 2293.1634,2284.9145 C 2288.5783,2288.3083 2285.0695,2291.0851 2285.3661,2291.0851 C 2285.6626,2291.0851 2296.8391,2286.8735 2310.2026,2281.7259 z M 2063,2011.4066 C 2055.025,2009.4938 2033.2,2003.9999 2014.5,1999.1978 C 1985.4005,1991.7251 1980.4121,1990.6914 1979.8901,1992.0259 C 1979.5547,1992.8835 1978.965,1996.8476 1978.5796,2000.8351 L 1977.8789,2008.0851 L 1981.203,2008.0851 C 1987.3983,2008.0851 2044.4214,2012.1247 2057.5,2013.4901 C 2077.6031,2015.5888 2078.7018,2015.1726 2063,2011.4066 z M 1918.2502,1945.3351 C 1918.5127,1943.8226 1921.051,1930.0702 1923.8909,1914.7742 C 1944.4501,1804.0402 1954.9298,1691.6879 1954.982,1581.4486 L 1955,1543.3122 L 1950.75,1542.7055 C 1943.1238,1541.6169 1886.1234,1537.1988 1859.1763,1535.6076 C 1760.9235,1529.806 1631.0921,1529.4136 1533,1534.6217 C 1482.4926,1537.3034 1447.3518,1540.3023 1414.9999,1544.6919 C 1386.2434,1548.5937 1376.6147,1551.0039 1348.2638,1561.3972 C 1334.0936,1566.5919 1315.2872,1573.2157 1306.4717,1576.1167 L 1290.4435,1581.3914 L 1295.4717,1586.0541 C 1302.6503,1592.7109 1326.1273,1612.7456 1342.4999,1626.1869 C 1494.274,1750.7876 1672.6013,1853.1917 1876.5,1932.8355 C 1909.951,1945.9017 1915.3723,1947.953 1916.6365,1948.0226 C 1917.2616,1948.057 1917.9878,1946.8476 1918.2502,1945.3351 z M 1474.9906,1516.0487 C 1484.6105,1514.3208 1505.7605,1510.2351 1521.9907,1506.9692 C 1661.6601,1478.8647 1804.4959,1463.1288 1920.25,1463.094 L 1950,1463.0851 L 1950,1458.5659 C 1950,1456.0804 1948.8896,1443.1429 1947.5324,1429.8159 C 1940.8587,1364.2817 1930.4227,1303.7775 1915.4968,1244.0851 C 1912.54,1232.2601 1909.7248,1221.515 1909.241,1220.2071 C 1908.4043,1217.9457 1907.6297,1218.5143 1893.4306,1231.8141 C 1779.9938,1338.0657 1623.1177,1442.4587 1475.9999,1509.5928 C 1454.8811,1519.2299 1451.5091,1520.9026 1455.4999,1519.7619 C 1456.5999,1519.4475 1465.3707,1517.7765 1474.9906,1516.0487 z"
     id="path2386" />
</svg>
