<?xml version="1.0" encoding="UTF-8" standalone="no"?>
<!-- Created with Inkscape (http://www.inkscape.org/) -->
<svg
   xmlns:dc="http://purl.org/dc/elements/1.1/"
   xmlns:cc="http://creativecommons.org/ns#"
   xmlns:rdf="http://www.w3.org/1999/02/22-rdf-syntax-ns#"
   xmlns:svg="http://www.w3.org/2000/svg"
   xmlns="http://www.w3.org/2000/svg"
   xmlns:sodipodi="http://sodipodi.sourceforge.net/DTD/sodipodi-0.dtd"
   xmlns:inkscape="http://www.inkscape.org/namespaces/inkscape"
   version="1.0"
   width="744.09448"
   height="1052.3622"
   id="svg2"
   sodipodi:version="0.32"
   inkscape:version="0.46"
   sodipodi:docname="seiba4.svg"
   inkscape:output_extension="org.inkscape.output.svg.inkscape"
   inkscape:export-filename="C:\Documents and Settings\Rob\Desktop\seiba4.png"
   inkscape:export-xdpi="100"
   inkscape:export-ydpi="100">
  <metadata
     id="metadata7">
    <rdf:RDF>
      <cc:Work
         rdf:about="">
        <dc:format>image/svg+xml</dc:format>
        <dc:type
           rdf:resource="http://purl.org/dc/dcmitype/StillImage" />
      </cc:Work>
    </rdf:RDF>
  </metadata>
  <sodipodi:namedview
     inkscape:window-height="744"
     inkscape:window-width="1280"
     inkscape:pageshadow="2"
     inkscape:pageopacity="0.0"
     guidetolerance="10.0"
     gridtolerance="10.0"
     objecttolerance="10.0"
     borderopacity="1.0"
     bordercolor="#666666"
     pagecolor="#ffffff"
     id="base"
     showgrid="false"
     inkscape:zoom="0.51218108"
     inkscape:cx="372.04724"
     inkscape:cy="526.18109"
     inkscape:window-x="0"
     inkscape:window-y="22"
     inkscape:current-layer="svg2" />
  <defs
     id="defs4">
    <inkscape:perspective
       sodipodi:type="inkscape:persp3d"
       inkscape:vp_x="0 : 526.18109 : 1"
       inkscape:vp_y="0 : 1000 : 0"
       inkscape:vp_z="744.09448 : 526.18109 : 1"
       inkscape:persp3d-origin="372.04724 : 350.78739 : 1"
       id="perspective9" />
  </defs>
  <g
     id="layer1">
    <path
       d="M 319.535,645.26067 C 314.13306,650.93387 320.74194,649.60828 331.1638,651.10956 C 336.83767,651.92689 335.49954,649.83609 325.11841,638.35104 M 328.14273,622.60366 C 333.58647,631.03729 332.60415,631.24127 351.14386,656.79794 C 353.19076,659.61955 325.5201,664.21059 308.5238,656.1259 C 291.8869,648.21217 318.8642,627.66609 328.14273,622.60366 z M 146.7712,1029.8189 C 172.4535,1003.1325 180.72444,976.54341 180.98089,919.84328 C 181.19819,871.79951 181.16996,871.68067 167.88574,864.70112 C 154.86134,857.85806 148.45725,836.66443 159.41389,836.66443 C 162.07647,836.66443 164.25495,834.72683 164.25495,832.35864 C 164.25495,829.99046 158.93733,828.05286 152.43801,828.05286 C 145.93868,828.05286 139.43822,826.35061 137.99253,824.27005 C 133.87039,818.33776 149.42305,793.52679 172.34964,769.46055 C 192.83295,747.95901 193.30131,746.77363 193.30131,716.43162 C 193.30131,699.3619 191.04618,681.64798 188.28992,677.06732 C 183.95046,669.85547 184.91712,668.73881 195.49958,668.73881 C 211.55225,668.73881 252.49207,682.71823 267.79618,693.42538 C 292.34014,698.19288 314.74698,686.97253 301.4608,686.36519 C 278.28627,686.36519 214.46402,665.8328 198.1567,655.98994 C 188.65114,650.25257 175.73963,641.41658 175.90716,648.31948 C 175.93659,649.53217 173.93707,669.44926 173.93707,701.89335 C 173.93707,736.24336 172.15086,759.17403 169.66067,756.79211 C 157.76311,745.41175 114.50714,674.12485 105.54395,628.42213 C 89.676597,570.89937 97.864269,512.08876 100.5467,452.49938 C 101.12018,441.23416 111.59382,418.84017 98.610404,444.26428 C 77.114197,486.35816 58.189415,517.20893 57.280976,528.80079 C 55.699489,548.98093 47.226089,494.68208 46.689854,461.6236 C 41.070553,346.86009 97.00122,271.90815 194.73409,220.84297 C 212.72452,211.44302 272.3859,200.15055 312.8246,196.40575 L 317.2098,193.10307 C 304.91986,170.52529 283.39292,158.67594 263.49667,140.91939 C 195.10076,82.359943 86.400615,63.855563 47.686718,157.6229 C 41.560365,173.50029 34.783306,186.49088 32.626587,186.49088 C 30.469868,186.49088 21.802382,165.68224 21.802382,139.40577 C 29.021659,57.639555 77.973922,20.354536 154.57283,19.014091 C 249.31902,18.934127 310.08923,97.695479 356.80342,171.60635 L 366.75442,189.01521 L 424.04939,199.19172 C 487.83847,210.52169 518.73311,225.76201 536.05752,240.7269 C 553.38192,255.69179 557.99222,255.38344 564.54116,255.38344 C 581.26837,255.38344 652.9147,280.52635 671.7044,292.99034 C 693.22988,307.26906 694.54781,312.01102 684.71712,339.80958 C 676.48805,363.0792 676.51927,363.78653 686.1813,372.99504 C 702.19277,388.25493 704.13713,403.75606 691.94928,418.97977 C 681.774,431.68958 681.6551,432.93881 689.05481,449.38765 C 693.29897,458.8221 696.77151,475.37948 696.77151,486.18187 C 696.77151,502.30157 693.6955,509.16133 679.61319,524.44678 C 670.17608,534.69012 655.09492,546.17735 646.09946,549.97397 C 634.35447,554.9311 628.79499,560.72044 626.37713,570.51175 C 622.49576,586.22946 629.54323,592.76035 658.79785,600.5561 C 668.6343,603.17733 685.8798,613.65731 697.12118,623.84497 C 716.57357,641.47393 717.27068,642.98935 711.56448,655.24211 C 703.75769,672.00548 694.60252,679.04471 660.3327,694.63307 C 622.91553,711.65306 619.31455,711.26886 619.31455,690.25684 C 619.31455,674.81681 616.06809,670.1211 588.12728,645.14702 L 571.58328,630.45017 L 550.86071,692.29096 C 546.75873,718.78795 534.45332,737.88897 528.33277,776.91333 C 523.67548,806.60804 520.9607,795.9224 527.45101,806.10369 C 531.93572,813.13891 525.04111,819.74299 523.69704,830.96895 C 544.22638,913.47164 522.25618,933.96845 544.60277,990.61752 C 553.98712,1013.6757 563.74393,1034.3903 566.28457,1036.65 C 568.82525,1038.9098 570.90396,1042.3087 570.90396,1044.2033 C 570.90396,1046.0978 471.61351,1047.6479 350.25851,1047.6479 L 129.61307,1047.6479 L 146.7712,1029.8189 z M 416.34763,972.1544 C 481.72541,963.60423 494.6351,959.65096 503.87513,945.35132 C 524.22968,921.62713 503.63053,845.37001 480.80797,874.53648 C 474.56888,905.5529 472.26954,908.84648 462.0971,901.33758 C 452.81156,894.48333 443.78416,900.37308 435.1462,918.92116 C 430.21727,929.50491 426.95325,931.53056 418.03568,929.53987 C 410.14405,927.7782 404.51065,929.90969 398.1901,937.04873 C 383.02233,954.18067 364.67356,962.75633 354.02775,957.68885 C 343.39281,952.6265 336.56454,924.79675 341.58882,906.99185 C 343.36902,900.68323 342.86398,896.66077 340.44939,897.91663 C 338.06414,899.15722 324.90511,898.85099 311.2071,897.2361 C 294.51737,895.26849 286.84383,895.80155 287.9453,898.85202 C 288.84931,901.35566 290.54478,917.54921 291.713,934.83771 C 292.88123,952.12617 294.63513,966.81389 295.61057,967.47707 C 301.19632,971.27464 333.76362,977.93952 348.5728,978.31576 C 358.08851,978.55753 388.58718,975.78491 416.34763,972.1544 z M 261.07614,958.49132 C 233.41688,949.4983 218.90735,912.18971 234.72091,890.72373 L 243.18926,879.22841 L 229.13767,882.2912 C 210.87264,886.27241 207.98793,890.69045 207.89862,914.81968 C 207.83068,933.17249 209.24106,935.59027 224.76819,943.73854 C 234.08723,948.62897 241.7119,954.63317 241.7119,957.08118 C 241.7119,959.52923 247.70271,961.37921 255.02482,961.19226 C 262.53064,961.00061 265.17023,959.82246 261.07614,958.49132 z M 384.82853,924.54491 C 393.22528,915.54612 395.86151,914.81577 378.21775,906.70066 L 364.85971,902.38113 L 364.50616,910.45931 C 364.50616,917.62466 367.98454,922.42658 365.32195,922.42658 C 360.03978,922.42658 357.15637,936.64166 362.15103,941.08407 C 365.50067,944.06333 374.89971,935.18558 384.82853,924.54491 z M 266.3871,899.3136 C 273.53547,892.62422 271.40083,888.33385 260.9242,888.33385 C 248.10062,888.33385 244.22534,898.0254 252.01973,910.60277 C 257.91752,920.11967 258.32785,920.19124 260.124,912.01567 C 261.16456,907.27931 263.98296,901.56338 266.3871,899.3136 z M 418.38237,897.81177 C 429.65005,881.00519 412.11383,886.89308 406.30793,875.50881 C 406.30793,868.95829 428.47017,870.19168 434.91725,877.101 L 449.74589,877.16708 C 437.04922,866.51072 443.35224,870.39901 427.43927,866.20943 C 415.81703,863.6065 406.30793,860.01143 406.30793,858.22044 C 406.30793,854.2245 431.03137,849.58178 452.31036,849.58178 C 460.97057,849.58178 470.6596,846.79172 473.84156,843.38158 C 492.65646,830.76109 507.87311,832.99706 487.88771,806.88674 C 467.38447,783.95079 474.2417,760.48849 476.24531,783.80407 C 474.0268,781.96498 471.39305,767.46069 470.39252,751.5723 C 469.392,735.68391 467.71242,721.91857 466.66012,720.98262 C 465.60782,720.04667 457.25968,722.44095 448.10868,726.30324 C 438.95769,730.16553 429.07664,733.32559 426.15081,733.32559 C 423.22497,733.32559 420.83111,737.20079 420.83111,741.93716 C 420.83111,753.17853 415.60765,752.80539 399.38233,740.40494 C 390.95021,733.96056 373.88744,728.20997 352.59617,724.63681 C 323.72097,719.79087 315.35453,719.93537 292.14606,725.68088 L 265.2095,732.34929 L 259.79907,721.78768 C 256.82333,715.97878 246.63481,708.06578 237.15789,704.20328 C 227.68097,700.34077 218.29328,696.43246 216.29634,695.51821 C 214.2994,694.60392 212.66555,706.49744 212.66555,721.94819 C 216.25785,744.37707 196.16712,752.45218 215.39002,755.58604 C 226.32532,757.71951 254.96533,760.42796 269.15825,763.25303 C 292.52266,767.90362 294.96356,769.4866 294.96356,779.98876 C 294.96356,796.99316 279.16066,820.42654 261.45908,829.67102 C 246.54275,837.46091 245.31516,837.47585 226.90383,830.09148 C 212.03945,824.12973 205.40464,823.46883 196.92703,827.10546 C 186.17884,831.71613 186.20618,831.77952 199.06693,832.06723 C 215.66044,832.43843 221.14756,839.75667 206.68602,842.22888 C 196.23546,844.01544 196.20519,844.13075 206.0398,844.68964 C 211.71467,845.01214 222.60705,850.81212 230.24509,857.57845 C 248.18778,873.47347 272.92158,881.32149 280.26629,873.45017 C 284.17495,869.26129 283.62888,867.16222 278.14341,865.29002 C 264.38383,860.59379 270.66308,855.50284 289.8827,855.77234 C 300.40113,855.91981 311.62725,858.37179 314.82963,861.22118 C 318.99933,864.93126 323.30769,865.13781 330.00722,861.94877 C 342.95083,855.7875 346.65511,860.7494 336.5362,870.69434 C 328.56196,878.53152 328.58353,879.0563 336.9693,881.22939 C 341.82326,882.48728 358.42055,884.83471 373.85216,886.44589 C 389.28377,888.05707 397.87133,890.32185 399.22344,891.76448 C 408.98573,902.18038 406.41669,904.62262 411.96464,904.62262 C 413.87824,904.62262 416.76621,901.55776 418.38237,897.81177 z M 369.79281,841.6138 C 361.69112,837.18991 351.34335,828.52189 346.79778,822.35153 C 315.3381,787.94838 400.18086,749.55693 367.05677,806.49609 C 386.01179,840.18386 362.13751,805.73782 374.51582,816.7475 C 386.20411,827.14338 395.37087,824.57198 400.00673,824.57198 C 403.93861,824.57198 415.29574,828.51036 424.92772,811.18549 C 434.47366,794.01537 429.70756,794.50466 416.99899,795.09817 C 409.9023,795.4296 379.00648,793.74223 375.85848,797.1878 C 339.72266,816.62417 340.5222,773.58334 380.79449,772.90553 C 388.24995,772.79755 396.54734,772.83037 404.34237,772.97694 C 412.1374,773.12351 419.43008,773.38383 424.87611,773.73082 C 441.74507,774.80561 456.8757,776.86685 458.49973,778.31131 C 465.008,784.09996 460.25717,815.92471 451.61715,824.41624 C 429.70607,845.95063 392.17936,853.83788 369.79281,841.6138 z M 314.3278,880.24948 C 314.3278,874.74346 300.09326,865.11292 296.57724,868.24017 C 293.06124,871.36742 303.88898,884.02807 310.0795,884.02807 C 312.41606,884.02807 314.3278,882.32771 314.3278,880.24948 z M 262.11052,805.96357 C 272.17843,797.00888 269.28144,794.87848 269.28144,784.88704 C 269.28144,778.93713 236.51729,772.3029 228.35931,776.78733 C 225.86516,778.15834 216.82449,777.61175 216.82449,789.01708 C 216.82449,808.12711 215.05891,802.29533 229.55793,808.65256 C 250.55965,817.86091 250.29283,816.47455 262.11052,805.96357 z M 198.14237,811.18189 C 198.14237,802.48679 191.90997,793.60658 185.80748,793.60658 C 177.11843,793.60658 173.25827,799.94047 176.85983,808.28827 C 179.9706,815.49844 198.14237,817.96914 198.14237,811.18189 z M 448.50592,697.44265 C 450.7402,660.61333 416.00546,682.84621 399.04634,688.39894 C 382.83581,691.10379 373.24061,701.08328 383.49224,706.71856 C 392.26306,719.44453 389.45683,716.13491 406.10078,716.94493 C 419.83365,718.23313 439.84027,708.86235 448.50592,697.44265 z M 521.61152,658.86337 C 533.63685,614.17845 551.28421,518.41313 552.10128,463.32354 C 552.41014,442.49968 551.53781,442.9949 553.4626,437.23971 C 613.07106,469.20063 615.08765,401.6282 607.82785,380.12626 C 603.82599,361.46356 573.11131,328.94355 568.44058,323.29046 C 480.97568,206.09849 326.99654,205.62859 198.14237,258.19506 C 180.83558,268.66107 172.31274,270.28162 179.98839,266.51034 C 188.42392,262.36571 165.6264,277.93743 164.30993,279.10892 C 124.4976,316.09478 81.070816,372.03095 69.87963,425.46195 L 66.684284,446.99088 L 74.655587,434.07352 C 81.288618,423.32481 102.81005,389.54771 128.37911,349.75643 C 137.14273,340.98473 138.16001,339.58087 146.30464,335.97983 C 150.11964,334.67774 147.81858,346.69172 142.13086,360.53159 C 133.02454,382.68994 135.12754,381.34441 127.16707,467.831 C 118.76885,559.0736 126.34493,592.61526 133.94917,592.61526 C 132.58943,571.01699 132.3518,561.8295 137.28528,551.23043 C 154.09869,515.10852 152.54314,470.61992 151.59874,506.84911 C 150.04592,468.63612 150.63743,428.0641 168.22204,393.01567 C 184.11871,366.7047 185.67795,359.30811 179.02356,424.09542 C 176.88642,444.90266 176.41907,466.87185 178.69347,473.61195 C 180.9556,480.31567 180.96818,481.94331 181.19812,477.80037 C 181.42698,473.67702 184.40433,454.32154 191.35406,436.42187 C 203.02275,406.36818 208.29431,405.07285 201.09613,397.99842 C 190.09953,387.19085 191.40791,383.20076 204.95661,386.22528 C 216.16212,388.72671 212.90453,387.20766 223.72517,346.86355 C 226.79803,337.95756 233.11735,312.60064 251.95864,289.82972 C 255.26991,289.82972 257.35262,309.9869 256.1687,316.11342 C 248.30836,356.78911 249.65416,371.78407 251.62776,401.56667 C 252.01887,407.46871 258.9955,417.48968 254.15444,419.06847 C 245.6196,425.41712 249.61998,460.63657 258.49541,479.49776 C 259.8826,483.64208 259.96936,479.28247 258.6882,469.80974 C 254.62184,439.74369 302.31458,263.99501 313.49215,263.99501 C 315.31726,263.99501 324.69838,279.93574 329.56647,306.57779 C 334.43457,333.21984 343.41923,366.14448 349.5324,379.74367 C 361.36776,406.0723 378.94347,433.39858 387.14309,437.90592 C 390.39481,439.69338 398.8457,453.01209 396.8475,433.36604 C 394.03964,407.11285 404.27099,417.6558 381.07856,413.31474 L 369.99998,400.7635 L 385.73343,398.78116 L 396.58578,394.35828 L 396.58578,356.28528 C 396.58578,331.31761 403.58676,310.70157 406.30793,309.20575 C 409.08507,307.67916 414.31559,314.56969 417.00629,320.77449 C 423.83981,336.53269 424.4134,337.53798 426.90419,344.81066 C 429.39497,352.08334 433.83937,366.75663 436.78063,376.8214 C 442.30576,385.97603 451.64749,384.70509 466.21192,380.05864 L 470.91214,328.07956 C 493.05956,349.06366 513.88934,390.95826 515.13322,543.89914 C 515.48642,664.28928 505.04769,693.21579 510.79398,698.32667 C 520.91936,749.34093 511.66297,694.36147 521.61152,658.86337 z M 463.43291,345.35353 C 462.20104,329.07237 461.17708,315.13997 454.3316,300.31801 C 450.64098,291.01429 448.60627,282.52617 454.81001,281.45552 C 461.61208,280.28161 476.45545,275.97484 492.64021,343.5764 C 530.41642,501.36262 456.276,405.36936 463.43291,345.35353 z M 347.34553,706.27001 C 350.71365,702.66043 350.88735,698.55314 347.8463,694.4291 C 343.88038,689.05088 342.12735,689.35383 336.02057,696.47293 C 332.0773,701.06987 328.85098,706.39828 328.85098,708.31384 C 328.85098,713.79373 341.64438,712.37992 347.34553,706.27001 z M 151.88949,651.65556 C 152.47544,621.86887 150.97141,610.07528 146.26106,607.52126 C 130.48066,602.50584 136.98148,615.28419 142.46423,645.8812 C 157.15177,687.28739 153.84839,701.14353 151.88949,651.65556 z M 362.73839,687.86071 C 362.73839,686.81639 360.55992,685.96195 357.89733,685.96195 C 355.23475,685.96195 353.05627,688.01391 353.05627,690.52186 C 353.05627,693.02981 355.23475,693.88425 357.89733,692.42063 C 360.55992,690.957 362.73839,688.90504 362.73839,687.86071 z M 403.8874,666.81593 C 441.78032,660.02937 470.23163,631.83558 476.16189,625.41264 C 482.31542,618.74788 478.0321,479.45085 473.77217,432.5148 L 471.50435,406.90279 C 466.01037,407.8732 454.38328,406.32171 452.82698,409.97462 C 455.99682,410.0863 456.0749,418.48468 466.83698,442.22637 C 481.3049,474.14339 484.36795,493.30034 484.36795,510.51835 C 484.36795,541.41223 470.16222,558.09696 439.52814,560.71505 C 417.80651,562.57145 410.38763,556.50266 399.40751,546.73663 C 385.854,534.68172 382.28577,507.98813 392.05711,491.74899 C 396.24051,484.79653 394.18216,479.5619 380.73991,462.96801 C 358.65359,435.70337 320.54214,394.13556 313.12908,353.16582 C 309.81861,334.86986 309.71921,330.97062 309.47284,332.44453 C 294.63159,421.23395 265.64844,498.8501 269.22787,514.79903 C 272.22069,528.13421 261.86382,545.19451 246.26903,552.61777 C 233.57015,558.66253 212.1045,554.51636 198.73243,543.43585 L 188.33198,534.8177 L 184.1057,544.7266 C 180.08236,554.15967 179.64148,553.91183 174.92432,539.56526 C 170.32771,516.20239 171.20294,527.41785 160.36767,554.46791 C 127.52911,599.27032 195.80203,635.66595 246.56682,656.38314 C 263.59513,663.33242 283.14739,668.41984 323.92356,668.7097 C 388.53006,673.67521 394.13517,668.64461 403.8874,666.81593 z M 469.16757,667.13516 C 469.20834,665.06903 465.99798,665.77298 462.03341,668.69945 C 458.06886,671.62597 456.16269,675.94527 457.79749,678.29795 C 460.79774,682.61571 469.02141,674.54193 469.16757,667.13516 z M 582.48638,582.62311 C 592.03856,582.62311 606.29572,564.76193 606.29572,552.79512 C 606.29572,540.14925 589.82028,522.34211 576.73354,522.34211 C 569.67131,522.34211 562.72619,541.48034 562.72619,568.55176 C 562.72619,584.38043 564.10298,587.38031 570.38373,585.23668 C 574.59535,583.79919 580.04154,582.62311 582.48638,582.62311 z M 250.57412,536.22748 C 269.87273,515.65806 243.91453,487.76349 228.62932,487.0415 C 212.06585,486.25914 190.29993,507.56508 200.88556,528.81067 C 209.6907,546.48277 234.79067,550.2658 250.57412,536.22748 z M 458.81455,498.44201 C 437.26409,476.27502 401.04195,488.64089 400.18897,513.96633 C 399.45417,535.7828 408.89967,545.00104 432.72777,547.73032 C 456.55587,550.4596 480.16926,529.57996 458.81455,498.44201 z M 657.69166,506.69119 C 668.96635,493.94262 670.97665,468.81358 662.107,451.49925 C 651.91323,431.60011 643.51985,438.07084 643.51985,465.82869 C 643.51985,479.74175 642.1583,497.18018 640.49419,504.58075 C 636.74411,521.25792 644.01945,522.15077 657.69166,506.69119 z M 446.27227,444.34476 C 431.97653,412.74842 427.57515,410.62093 421.02373,411.74311 C 414.21954,412.90859 411.16154,411.35741 411.21509,431.1599 C 411.31236,467.12576 414.70614,474.97848 430.15258,474.97848 C 437.32089,474.97848 447.41115,477.72647 452.57538,481.08512 C 457.73961,484.44376 462.55745,486.66468 463.2817,486.02054 C 464.00594,485.37635 456.3517,466.62228 446.27227,444.34476 z M 226.87047,474.97848 C 235.75024,474.97848 231.01354,470.40378 231.01354,449.62454 C 231.01354,425.3849 230.91928,416.69252 223.6669,416.69252 C 221.37437,416.69252 218.03233,420.35631 213.46994,437.52563 C 208.90756,454.69495 204.65609,470.51749 203.20539,474.86508 C 200.9424,481.64704 202.18558,481.43737 207.04812,479.65383 C 212.66509,477.59357 221.37026,474.97848 226.87047,474.97848 z M 675.27589,393.97889 C 671.5249,383.46726 655.1215,370.07624 649.66824,373.07389 C 645.03171,375.62259 645.54506,411.46745 650.31646,418.33408 C 655.60081,425.93896 678.65355,403.4443 675.27589,393.97889 z M 240.14683,345.88695 C 234.97282,358.08341 227.19421,375.40612 236.56832,390.2658 L 240.14683,345.88695 z M 646.80092,327.94632 C 650.20506,315.88275 668.08236,325.98108 627.31842,302.39889 C 608.07661,291.26736 598.36346,288.97437 585.78847,288.86401 L 607.0864,319.59537 C 620.52573,327.35328 637.3993,351.21571 646.80092,327.94632 z M 420.75504,390.82825 C 421.83287,389.05211 420.30143,378.42125 415.56211,363.02807 L 411.82627,339.92155 L 410.28898,366.74551 C 410.58716,389.16648 409.53432,394.05759 414.01759,394.05759 C 417.45075,394.05759 419.67722,392.60438 420.75504,390.82825 z M 298.8609,127.64437 C 257.01726,79.74956 215.60471,46.131898 151.71358,40.0626 C 109.56799,34.094783 64.876003,57.494171 50.565199,98.796401 C 44.909631,126.60817 26.914926,137.61113 53.90866,103.15552 C 80.902394,68.69991 97.587344,60.753024 148.07296,58.920986 C 187.8898,58.920986 237.60366,86.268571 291.75361,133.79715 C 314.71972,153.95501 314.13548,153.00239 298.8609,127.64437 z"
       id="path2453"
       style="fill:#000000"
       sodipodi:nodetypes="csscssccssssssssssccssssccsscsccccscccczzssssssssssssssscccssccssccccccsssssssssssscccccsssscccccssccsssccccccsscccssssssscccssccsssssssssssssssssssccccssssccssssccssccssssccsscccccccsccccsccccccsscsccssssssccssccsssssccccccsssccccccccssccsssccccccsssccscccsssssssssscccccscccssccssssccssccssccsssccsssssccsssssccsscccccscccccccscccczcsc" />
  </g>
</svg>
